<?xml version="1.0" encoding="UTF-8" standalone="no"?>
<!-- Created with Inkscape (http://www.inkscape.org/) -->

<svg
   xmlns:dc="http://purl.org/dc/elements/1.1/"
   xmlns:cc="http://creativecommons.org/ns#"
   xmlns:rdf="http://www.w3.org/1999/02/22-rdf-syntax-ns#"
   xmlns:svg="http://www.w3.org/2000/svg"
   xmlns="http://www.w3.org/2000/svg"
   xmlns:sodipodi="http://sodipodi.sourceforge.net/DTD/sodipodi-0.dtd"
   xmlns:inkscape="http://www.inkscape.org/namespaces/inkscape"
   version="1.1"
   id="svg2"
   xml:space="preserve"
   width="463"
   height="171"
   viewBox="0 0 463 170.99999"
   sodipodi:docname="logo-ue.svg"
   inkscape:version="0.92.4 (5da689c313, 2019-01-14)"><metadata
     id="metadata8"><rdf:RDF><cc:Work
         rdf:about=""><dc:format>image/svg+xml</dc:format><dc:type
           rdf:resource="http://purl.org/dc/dcmitype/StillImage" /><dc:title /></cc:Work></rdf:RDF></metadata><defs
     id="defs6"><clipPath
       clipPathUnits="userSpaceOnUse"
       id="clipPath72"><path
         d="M 0,181.41 H 657.813 V 0 H 0 Z"
         id="path70"
         inkscape:connector-curvature="0" /></clipPath></defs><sodipodi:namedview
     pagecolor="#ffffff"
     bordercolor="#666666"
     borderopacity="1"
     objecttolerance="10"
     gridtolerance="10"
     guidetolerance="10"
     inkscape:pageopacity="1"
     inkscape:pageshadow="2"
     inkscape:window-width="1680"
     inkscape:window-height="991"
     id="namedview4"
     showgrid="false"
     fit-margin-top="40"
     fit-margin-bottom="40"
     fit-margin-left="30"
     fit-margin-right="30"
     inkscape:zoom="0.76389492"
     inkscape:cx="-92.000657"
     inkscape:cy="-10.405194"
     inkscape:window-x="0"
     inkscape:window-y="30"
     inkscape:window-maximized="1"
     inkscape:current-layer="g10" /><g
     id="g10"
     inkscape:groupmode="layer"
     inkscape:label="FE_Polska_Cyfrowa"
     transform="matrix(1.3333333,0,0,-1.3333333,-383.93319,202.81333)"><path
       d="M 612.687,53.86 H 510.651 v 68.025 h 102.036 z"
       style="fill:#164194;fill-opacity:1;fill-rule:nonzero;stroke:none"
       id="path12"
       inkscape:connector-curvature="0" /><g
       id="g14"
       transform="translate(559.4948,107.0583)"><path
         d="M 0,0 2.158,1.573 4.309,0 3.487,2.541 5.676,4.112 H 2.98 L 2.158,6.683 1.335,4.112 H -1.369 L 0.814,2.541 Z"
         style="fill:#ffed00;fill-opacity:1;fill-rule:nonzero;stroke:none"
         id="path16"
         inkscape:connector-curvature="0" /></g><g
       id="g18"
       transform="translate(548.3508,104.0687)"><path
         d="M 0,0 2.158,1.573 4.309,0 3.488,2.539 5.676,4.112 H 2.98 L 2.153,6.69 1.33,4.105 -1.36,4.112 0.823,2.539 Z"
         style="fill:#ffed00;fill-opacity:1;fill-rule:nonzero;stroke:none"
         id="path20"
         inkscape:connector-curvature="0" /></g><g
       id="g22"
       transform="translate(542.3499,102.5831)"><path
         d="m 0,0 -0.823,-2.58 -2.695,0.005 2.183,-1.572 -0.816,-2.54 2.151,1.567 2.158,-1.567 -0.821,2.54 2.19,1.572 H 0.829 Z"
         style="fill:#ffed00;fill-opacity:1;fill-rule:nonzero;stroke:none"
         id="path24"
         inkscape:connector-curvature="0" /></g><g
       id="g26"
       transform="translate(539.366,86.348)"><path
         d="M 0,0 2.144,-1.58 1.328,0.961 3.518,2.532 H 0.823 L 0,5.11 -0.836,2.526 -3.527,2.532 -1.344,0.961 -2.158,-1.58 Z"
         style="fill:#ffed00;fill-opacity:1;fill-rule:nonzero;stroke:none"
         id="path28"
         inkscape:connector-curvature="0" /></g><g
       id="g30"
       transform="translate(543.1782,77.7212)"><path
         d="M 0,0 -0.829,2.571 -1.65,0 H -4.347 L -2.164,-1.579 -2.98,-4.112 -0.829,-2.539 1.329,-4.112 0.508,-1.579 2.697,0 Z"
         style="fill:#ffed00;fill-opacity:1;fill-rule:nonzero;stroke:none"
         id="path32"
         inkscape:connector-curvature="0" /></g><g
       id="g34"
       transform="translate(551.343,69.5522)"><path
         d="M 0,0 -0.823,2.571 -1.652,-0.007 -4.348,0 -2.158,-1.573 -2.974,-4.112 -0.823,-2.539 1.335,-4.112 0.514,-1.573 2.704,0 Z"
         style="fill:#ffed00;fill-opacity:1;fill-rule:nonzero;stroke:none"
         id="path36"
         inkscape:connector-curvature="0" /></g><g
       id="g38"
       transform="translate(562.4734,66.5927)"><path
         d="M 0,0 -0.822,2.578 -1.645,0 H -4.347 L -2.158,-1.568 -2.98,-4.112 -0.822,-2.539 1.335,-4.112 0.506,-1.568 2.704,0 Z"
         style="fill:#ffed00;fill-opacity:1;fill-rule:nonzero;stroke:none"
         id="path40"
         inkscape:connector-curvature="0" /></g><g
       id="g42"
       transform="translate(573.6042,69.5522)"><path
         d="M 0,0 -0.829,2.571 -1.659,-0.007 -4.343,0 -2.164,-1.573 -2.98,-4.112 -0.829,-2.539 1.329,-4.112 0.506,-1.573 2.704,0 Z"
         style="fill:#ffed00;fill-opacity:1;fill-rule:nonzero;stroke:none"
         id="path44"
         inkscape:connector-curvature="0" /></g><g
       id="g46"
       transform="translate(581.7751,77.7212)"><path
         d="M 0,0 -0.829,2.571 -1.65,0 h -2.693 l 2.185,-1.579 -0.829,-2.533 2.158,1.573 L 1.328,-4.112 0.506,-1.579 2.697,0 Z"
         style="fill:#ffed00;fill-opacity:1;fill-rule:nonzero;stroke:none"
         id="path48"
         inkscape:connector-curvature="0" /></g><g
       id="g50"
       transform="translate(587.4249,88.9121)"><path
         d="M 0,0 H -2.697 L -3.513,2.578 -4.348,0 h -2.687 l 2.187,-1.573 -0.83,-2.539 2.165,1.573 2.151,-1.573 -0.821,2.539 z"
         style="fill:#ffed00;fill-opacity:1;fill-rule:nonzero;stroke:none"
         id="path52"
         inkscape:connector-curvature="0" /></g><g
       id="g54"
       transform="translate(578.7895,95.9348)"><path
         d="M 0,0 2.158,1.564 4.316,0 3.493,2.539 5.683,4.104 H 2.987 L 2.158,6.687 1.337,4.097 -1.355,4.104 0.829,2.539 Z"
         style="fill:#ffed00;fill-opacity:1;fill-rule:nonzero;stroke:none"
         id="path56"
         inkscape:connector-curvature="0" /></g><g
       id="g58"
       transform="translate(572.8071,110.758)"><path
         d="m 0,0 -0.814,-2.584 -2.704,0.006 2.19,-1.572 -0.816,-2.545 2.158,1.58 2.144,-1.58 -0.816,2.545 2.183,1.572 H 0.829 Z"
         style="fill:#ffed00;fill-opacity:1;fill-rule:nonzero;stroke:none"
         id="path60"
         inkscape:connector-curvature="0" /></g><g
       id="g62"
       transform="translate(350.54,77.6038)"><path
         d="M 0,0 V 11.227 H 6.853 V 9.882 H 1.572 V 6.545 H 6.27 V 5.232 H 1.572 V 1.345 H 7.258 V 0 Z"
         style="fill:#1d1d1b;fill-opacity:1;fill-rule:nonzero;stroke:none"
         id="path64"
         inkscape:connector-curvature="0" /></g><g
       id="g74"
       transform="translate(366.0112,78.0252)"><path
         d="m 0,0 c -0.346,-0.087 -0.802,-0.178 -1.369,-0.275 -0.567,-0.098 -1.223,-0.146 -1.968,-0.146 -0.648,0 -1.194,0.094 -1.637,0.283 -0.443,0.189 -0.799,0.456 -1.069,0.802 -0.27,0.346 -0.464,0.753 -0.583,1.223 -0.119,0.47 -0.178,0.991 -0.178,1.563 v 4.731 h 1.507 V 3.774 c 0,-1.026 0.161,-1.76 0.485,-2.203 0.325,-0.443 0.87,-0.664 1.637,-0.664 0.162,0 0.329,0.005 0.502,0.016 0.173,0.011 0.335,0.025 0.486,0.041 0.151,0.016 0.289,0.032 0.413,0.048 0.124,0.016 0.213,0.035 0.267,0.057 V 8.181 H 0 Z"
         style="fill:#1d1d1b;fill-opacity:1;fill-rule:nonzero;stroke:none"
         id="path76"
         inkscape:connector-curvature="0" /></g><g
       id="g78"
       transform="translate(371.6323,86.2059)"><path
         d="M 0,0 C 0.13,0 0.278,-0.008 0.446,-0.024 0.613,-0.041 0.778,-0.062 0.94,-0.089 1.102,-0.116 1.25,-0.143 1.385,-0.17 1.52,-0.197 1.62,-0.221 1.685,-0.243 L 1.426,-1.555 c -0.119,0.043 -0.316,0.095 -0.592,0.154 -0.275,0.059 -0.629,0.089 -1.061,0.089 -0.281,0 -0.559,-0.03 -0.834,-0.089 -0.275,-0.059 -0.457,-0.1 -0.543,-0.121 v -7.08 H -3.11 v 8.067 c 0.356,0.13 0.799,0.252 1.328,0.365 C -1.253,-0.057 -0.659,0 0,0"
         style="fill:#1d1d1b;fill-opacity:1;fill-rule:nonzero;stroke:none"
         id="path80"
         inkscape:connector-curvature="0" /></g><g
       id="g82"
       transform="translate(380.558,82.0101)"><path
         d="M 0,0 C 0,0.95 -0.213,1.704 -0.64,2.26 -1.066,2.816 -1.647,3.094 -2.381,3.094 -3.116,3.094 -3.696,2.816 -4.123,2.26 -4.549,1.704 -4.763,0.95 -4.763,0 c 0,-0.95 0.214,-1.704 0.64,-2.26 0.427,-0.556 1.007,-0.834 1.742,-0.834 0.734,0 1.315,0.278 1.741,0.834 C -0.213,-1.704 0,-0.95 0,0 m 1.572,0 c 0,-0.669 -0.097,-1.274 -0.292,-1.814 -0.195,-0.54 -0.467,-1.005 -0.818,-1.394 -0.351,-0.388 -0.77,-0.688 -1.255,-0.898 -0.487,-0.211 -1.016,-0.316 -1.588,-0.316 -0.573,0 -1.102,0.105 -1.588,0.316 -0.486,0.21 -0.905,0.51 -1.255,0.898 -0.351,0.389 -0.624,0.854 -0.818,1.394 -0.195,0.54 -0.292,1.145 -0.292,1.814 0,0.659 0.097,1.261 0.292,1.807 0.194,0.545 0.467,1.012 0.818,1.401 0.35,0.389 0.769,0.688 1.255,0.899 0.486,0.21 1.015,0.316 1.588,0.316 0.572,0 1.101,-0.106 1.588,-0.316 C -0.308,3.896 0.111,3.597 0.462,3.208 0.813,2.819 1.085,2.352 1.28,1.807 1.475,1.261 1.572,0.659 1.572,0"
         style="fill:#1d1d1b;fill-opacity:1;fill-rule:nonzero;stroke:none"
         id="path84"
         inkscape:connector-curvature="0" /></g><g
       id="g86"
       transform="translate(390.019,81.7996)"><path
         d="M 0,0 C 0,0.982 -0.243,1.739 -0.729,2.268 -1.215,2.797 -1.863,3.062 -2.673,3.062 -3.126,3.062 -3.48,3.045 -3.734,3.013 -3.988,2.981 -4.19,2.943 -4.341,2.9 v -5.314 c 0.183,-0.151 0.447,-0.297 0.793,-0.437 0.346,-0.141 0.724,-0.211 1.134,-0.211 0.432,0 0.802,0.079 1.11,0.235 0.308,0.157 0.559,0.373 0.753,0.648 0.195,0.276 0.335,0.599 0.422,0.972 C -0.043,-0.834 0,-0.432 0,0 M 1.572,0 C 1.572,-0.637 1.488,-1.226 1.32,-1.766 1.153,-2.306 0.907,-2.77 0.583,-3.159 0.259,-3.548 -0.138,-3.85 -0.607,-4.066 -1.077,-4.282 -1.615,-4.39 -2.219,-4.39 c -0.486,0 -0.916,0.065 -1.288,0.194 -0.373,0.13 -0.651,0.254 -0.834,0.373 v -3.37 H -5.848 V 3.969 c 0.356,0.086 0.802,0.181 1.336,0.283 0.535,0.103 1.153,0.154 1.855,0.154 0.648,0 1.232,-0.102 1.75,-0.307 C -0.389,3.894 0.054,3.602 0.421,3.224 0.789,2.846 1.072,2.384 1.272,1.839 1.472,1.293 1.572,0.68 1.572,0"
         style="fill:#1d1d1b;fill-opacity:1;fill-rule:nonzero;stroke:none"
         id="path88"
         inkscape:connector-curvature="0" /></g><g
       id="g90"
       transform="translate(398.9448,82.8201)"><path
         d="M 0,0 C 0.011,0.681 -0.159,1.239 -0.51,1.677 -0.861,2.114 -1.344,2.333 -1.96,2.333 -2.306,2.333 -2.611,2.265 -2.875,2.13 -3.14,1.995 -3.364,1.82 -3.547,1.604 -3.731,1.388 -3.875,1.14 -3.977,0.859 -4.08,0.578 -4.147,0.292 -4.179,0 Z m -5.783,-0.826 c 0,0.745 0.108,1.396 0.324,1.952 0.216,0.556 0.502,1.018 0.858,1.385 0.357,0.367 0.767,0.642 1.232,0.826 0.464,0.184 0.939,0.276 1.425,0.276 1.134,0 2.004,-0.354 2.609,-1.061 C 1.269,1.844 1.572,0.767 1.572,-0.68 v -0.252 c 0,-0.102 -0.006,-0.196 -0.016,-0.283 h -5.768 c 0.065,-0.875 0.318,-1.539 0.762,-1.993 0.442,-0.453 1.134,-0.68 2.073,-0.68 0.529,0 0.975,0.046 1.337,0.138 0.361,0.091 0.634,0.181 0.818,0.267 l 0.21,-1.264 C 0.805,-4.844 0.483,-4.946 0.024,-5.054 c -0.459,-0.109 -0.98,-0.162 -1.563,-0.162 -0.734,0 -1.369,0.111 -1.903,0.332 -0.535,0.221 -0.975,0.526 -1.321,0.915 -0.345,0.389 -0.602,0.85 -0.769,1.385 -0.168,0.535 -0.251,1.121 -0.251,1.758"
         style="fill:#1d1d1b;fill-opacity:1;fill-rule:nonzero;stroke:none"
         id="path92"
         inkscape:connector-curvature="0" /></g><g
       id="g94"
       transform="translate(403.351,87.5506)"><path
         d="m 0,0 c -0.27,0 -0.5,0.089 -0.688,0.267 -0.189,0.178 -0.284,0.419 -0.284,0.721 0,0.303 0.095,0.543 0.284,0.721 C -0.5,1.887 -0.27,1.977 0,1.977 0.27,1.977 0.5,1.887 0.688,1.709 0.877,1.531 0.972,1.291 0.972,0.988 0.972,0.686 0.877,0.445 0.688,0.267 0.5,0.089 0.27,0 0,0 m -2.122,-12.976 c -0.129,0 -0.297,0.016 -0.502,0.048 -0.205,0.033 -0.378,0.076 -0.519,0.13 l 0.195,1.231 c 0.108,-0.032 0.232,-0.059 0.372,-0.081 0.141,-0.021 0.27,-0.032 0.389,-0.032 0.519,0 0.888,0.159 1.11,0.478 0.221,0.318 0.332,0.785 0.332,1.401 v 8.278 h 1.507 v -8.262 c 0,-1.08 -0.246,-1.882 -0.738,-2.405 -0.491,-0.524 -1.207,-0.786 -2.146,-0.786"
         style="fill:#1d1d1b;fill-opacity:1;fill-rule:nonzero;stroke:none"
         id="path96"
         inkscape:connector-curvature="0" /></g><g
       id="g98"
       transform="translate(408.5839,78.8836)"><path
         d="M 0,0 C 0.615,0 1.072,0.081 1.369,0.243 1.666,0.405 1.814,0.664 1.814,1.021 1.814,1.388 1.668,1.679 1.377,1.896 1.085,2.111 0.604,2.354 -0.065,2.625 -0.389,2.754 -0.7,2.886 -0.997,3.021 -1.293,3.156 -1.55,3.315 -1.766,3.499 c -0.216,0.184 -0.389,0.405 -0.518,0.665 -0.13,0.259 -0.195,0.577 -0.195,0.955 0,0.745 0.276,1.337 0.827,1.774 0.55,0.438 1.301,0.656 2.251,0.656 0.238,0 0.475,-0.013 0.713,-0.04 C 1.549,7.481 1.771,7.449 1.976,7.412 2.181,7.374 2.362,7.333 2.519,7.29 2.675,7.247 2.797,7.209 2.883,7.177 L 2.608,5.88 C 2.446,5.967 2.192,6.056 1.847,6.148 1.501,6.24 1.085,6.286 0.599,6.286 c -0.421,0 -0.788,-0.084 -1.101,-0.251 -0.314,-0.168 -0.47,-0.43 -0.47,-0.786 0,-0.184 0.035,-0.346 0.105,-0.486 0.07,-0.14 0.179,-0.267 0.324,-0.381 C -0.397,4.269 -0.216,4.164 0,4.066 0.216,3.969 0.475,3.866 0.777,3.758 1.177,3.607 1.533,3.458 1.847,3.313 2.16,3.167 2.427,2.997 2.648,2.803 2.87,2.608 3.04,2.374 3.159,2.098 3.277,1.823 3.337,1.485 3.337,1.085 3.337,0.308 3.048,-0.281 2.47,-0.68 1.893,-1.08 1.069,-1.28 0,-1.28 c -0.745,0 -1.329,0.062 -1.75,0.187 -0.421,0.124 -0.707,0.218 -0.858,0.283 l 0.275,1.296 C -2.16,0.421 -1.885,0.324 -1.507,0.194 -1.129,0.065 -0.626,0 0,0"
         style="fill:#1d1d1b;fill-opacity:1;fill-rule:nonzero;stroke:none"
         id="path100"
         inkscape:connector-curvature="0" /></g><g
       id="g102"
       transform="translate(416.8134,82.2371)"><path
         d="M 0,0 C 0.324,-0.249 0.667,-0.557 1.028,-0.923 1.39,-1.291 1.747,-1.687 2.098,-2.114 2.449,-2.541 2.781,-2.973 3.094,-3.41 3.407,-3.848 3.672,-4.255 3.888,-4.633 H 2.122 c -0.227,0.378 -0.489,0.764 -0.786,1.158 -0.297,0.394 -0.607,0.772 -0.931,1.134 -0.324,0.362 -0.654,0.694 -0.988,0.996 -0.335,0.303 -0.654,0.556 -0.956,0.762 v -4.05 H -3.046 V 7.679 l 1.507,0.259 V 0.259 c 0.259,0.259 0.545,0.545 0.858,0.859 0.313,0.313 0.621,0.632 0.924,0.956 0.302,0.323 0.589,0.634 0.859,0.931 0.269,0.297 0.502,0.559 0.696,0.786 H 3.564 C 3.315,3.521 3.045,3.224 2.754,2.9 2.462,2.576 2.16,2.249 1.847,1.919 1.533,1.59 1.217,1.261 0.899,0.932 0.58,0.602 0.281,0.292 0,0"
         style="fill:#1d1d1b;fill-opacity:1;fill-rule:nonzero;stroke:none"
         id="path104"
         inkscape:connector-curvature="0" /></g><path
       d="m 423.65,77.604 h -1.507 v 8.424 h 1.507 z m -0.762,9.947 c -0.27,0 -0.499,0.089 -0.688,0.267 -0.189,0.178 -0.284,0.418 -0.284,0.721 0,0.302 0.095,0.542 0.284,0.721 0.189,0.178 0.418,0.267 0.688,0.267 0.27,0 0.5,-0.089 0.689,-0.267 0.189,-0.179 0.283,-0.419 0.283,-0.721 0,-0.303 -0.094,-0.543 -0.283,-0.721 -0.189,-0.178 -0.419,-0.267 -0.689,-0.267"
       style="fill:#1d1d1b;fill-opacity:1;fill-rule:nonzero;stroke:none"
       id="path106"
       inkscape:connector-curvature="0" /><g
       id="g108"
       transform="translate(429.9184,77.6038)"><path
         d="M 0,0 V 11.227 H 6.772 V 9.882 h -5.2 V 6.496 H 6.188 V 5.168 H 1.572 V 0 Z"
         style="fill:#1d1d1b;fill-opacity:1;fill-rule:nonzero;stroke:none"
         id="path110"
         inkscape:connector-curvature="0" /></g><g
       id="g112"
       transform="translate(444.7416,78.0252)"><path
         d="m 0,0 c -0.346,-0.087 -0.802,-0.178 -1.369,-0.275 -0.567,-0.098 -1.223,-0.146 -1.968,-0.146 -0.648,0 -1.194,0.094 -1.637,0.283 -0.443,0.189 -0.799,0.456 -1.069,0.802 -0.27,0.346 -0.464,0.753 -0.583,1.223 -0.119,0.47 -0.178,0.991 -0.178,1.563 v 4.731 h 1.507 V 3.774 c 0,-1.026 0.161,-1.76 0.485,-2.203 0.325,-0.443 0.87,-0.664 1.637,-0.664 0.162,0 0.329,0.005 0.502,0.016 0.173,0.011 0.335,0.025 0.486,0.041 0.151,0.016 0.289,0.032 0.413,0.048 0.124,0.016 0.213,0.035 0.267,0.057 V 8.181 H 0 Z"
         style="fill:#1d1d1b;fill-opacity:1;fill-rule:nonzero;stroke:none"
         id="path114"
         inkscape:connector-curvature="0" /></g><g
       id="g116"
       transform="translate(447.2524,85.785)"><path
         d="m 0,0 c 0.346,0.086 0.805,0.178 1.377,0.275 0.572,0.098 1.231,0.146 1.977,0.146 0.669,0 1.225,-0.095 1.668,-0.283 0.443,-0.19 0.796,-0.454 1.061,-0.794 0.265,-0.341 0.451,-0.748 0.559,-1.223 0.108,-0.475 0.162,-0.999 0.162,-1.572 v -4.73 H 5.297 v 4.406 c 0,0.519 -0.035,0.962 -0.105,1.329 -0.07,0.367 -0.186,0.664 -0.348,0.891 -0.162,0.226 -0.378,0.391 -0.648,0.494 -0.27,0.103 -0.605,0.154 -1.005,0.154 -0.162,0 -0.329,-0.006 -0.502,-0.016 C 2.517,-0.935 2.352,-0.948 2.195,-0.964 2.039,-0.98 1.898,-0.999 1.774,-1.021 1.65,-1.042 1.561,-1.059 1.507,-1.069 V -8.181 H 0 Z"
         style="fill:#1d1d1b;fill-opacity:1;fill-rule:nonzero;stroke:none"
         id="path118"
         inkscape:connector-curvature="0" /></g><g
       id="g120"
       transform="translate(461.913,84.4402)"><path
         d="m 0,0 c -0.184,0.151 -0.448,0.297 -0.794,0.437 -0.346,0.141 -0.724,0.211 -1.134,0.211 -0.432,0 -0.802,-0.079 -1.11,-0.235 -0.307,-0.157 -0.559,-0.372 -0.753,-0.648 -0.194,-0.275 -0.335,-0.602 -0.421,-0.98 -0.087,-0.378 -0.13,-0.783 -0.13,-1.215 0,-0.983 0.243,-1.741 0.729,-2.276 0.487,-0.535 1.134,-0.802 1.945,-0.802 0.41,0 0.752,0.019 1.028,0.057 0.275,0.037 0.489,0.078 0.64,0.121 z M 0,5.67 1.506,5.929 V -6.399 C 1.161,-6.496 0.718,-6.593 0.178,-6.69 c -0.54,-0.098 -1.161,-0.146 -1.863,-0.146 -0.648,0 -1.231,0.102 -1.75,0.307 -0.518,0.205 -0.961,0.497 -1.328,0.875 -0.367,0.378 -0.651,0.84 -0.85,1.385 -0.2,0.545 -0.3,1.159 -0.3,1.839 0,0.648 0.083,1.242 0.251,1.782 0.167,0.54 0.413,1.004 0.737,1.393 0.324,0.389 0.721,0.691 1.191,0.907 0.47,0.216 1.007,0.325 1.612,0.325 0.486,0 0.915,-0.065 1.288,-0.195 C -0.462,1.652 -0.184,1.528 0,1.409 Z"
         style="fill:#1d1d1b;fill-opacity:1;fill-rule:nonzero;stroke:none"
         id="path122"
         inkscape:connector-curvature="0" /></g><g
       id="g124"
       transform="translate(472.6376,78.0252)"><path
         d="m 0,0 c -0.346,-0.087 -0.802,-0.178 -1.369,-0.275 -0.567,-0.098 -1.223,-0.146 -1.968,-0.146 -0.648,0 -1.194,0.094 -1.637,0.283 -0.443,0.189 -0.799,0.456 -1.069,0.802 -0.27,0.346 -0.464,0.753 -0.583,1.223 -0.119,0.47 -0.178,0.991 -0.178,1.563 v 4.731 h 1.507 V 3.774 c 0,-1.026 0.161,-1.76 0.485,-2.203 0.325,-0.443 0.87,-0.664 1.637,-0.664 0.162,0 0.329,0.005 0.502,0.016 0.173,0.011 0.335,0.025 0.486,0.041 0.151,0.016 0.289,0.032 0.413,0.048 0.124,0.016 0.213,0.035 0.267,0.057 V 8.181 H 0 Z"
         style="fill:#1d1d1b;fill-opacity:1;fill-rule:nonzero;stroke:none"
         id="path126"
         inkscape:connector-curvature="0" /></g><g
       id="g128"
       transform="translate(477.1083,78.8836)"><path
         d="M 0,0 C 0.615,0 1.072,0.081 1.369,0.243 1.666,0.405 1.814,0.664 1.814,1.021 1.814,1.388 1.668,1.679 1.377,1.896 1.085,2.111 0.604,2.354 -0.065,2.625 -0.389,2.754 -0.7,2.886 -0.997,3.021 -1.293,3.156 -1.55,3.315 -1.766,3.499 c -0.216,0.184 -0.389,0.405 -0.518,0.665 -0.13,0.259 -0.195,0.577 -0.195,0.955 0,0.745 0.276,1.337 0.827,1.774 0.55,0.438 1.301,0.656 2.251,0.656 0.238,0 0.475,-0.013 0.713,-0.04 C 1.549,7.481 1.771,7.449 1.976,7.412 2.181,7.374 2.362,7.333 2.519,7.29 2.675,7.247 2.797,7.209 2.883,7.177 L 2.608,5.88 C 2.446,5.967 2.192,6.056 1.847,6.148 1.501,6.24 1.085,6.286 0.599,6.286 c -0.421,0 -0.788,-0.084 -1.101,-0.251 -0.314,-0.168 -0.47,-0.43 -0.47,-0.786 0,-0.184 0.035,-0.346 0.105,-0.486 0.07,-0.14 0.179,-0.267 0.324,-0.381 C -0.397,4.269 -0.216,4.164 0,4.066 0.216,3.969 0.475,3.866 0.777,3.758 1.177,3.607 1.533,3.458 1.847,3.313 2.16,3.167 2.427,2.997 2.648,2.803 2.87,2.608 3.04,2.374 3.159,2.098 3.277,1.823 3.337,1.485 3.337,1.085 3.337,0.308 3.048,-0.281 2.47,-0.68 1.893,-1.08 1.069,-1.28 0,-1.28 c -0.745,0 -1.329,0.062 -1.75,0.187 -0.421,0.124 -0.707,0.218 -0.858,0.283 l 0.275,1.296 C -2.16,0.421 -1.885,0.324 -1.507,0.194 -1.129,0.065 -0.626,0 0,0"
         style="fill:#1d1d1b;fill-opacity:1;fill-rule:nonzero;stroke:none"
         id="path130"
         inkscape:connector-curvature="0" /></g><g
       id="g132"
       transform="translate(487.8813,84.8938)"><path
         d="M 0,0 C -0.227,-0.249 -0.526,-0.6 -0.899,-1.053 -1.271,-1.507 -1.671,-2.009 -2.098,-2.56 -2.524,-3.11 -2.951,-3.688 -3.377,-4.293 -3.804,-4.898 -4.179,-5.476 -4.503,-6.026 H 0.13 V -7.29 h -6.432 v 1.004 c 0.26,0.475 0.578,0.999 0.956,1.572 0.378,0.572 0.775,1.142 1.191,1.709 0.416,0.567 0.821,1.102 1.215,1.604 0.394,0.502 0.737,0.925 1.029,1.271 H -6.075 V 1.134 H 0 Z"
         style="fill:#1d1d1b;fill-opacity:1;fill-rule:nonzero;stroke:none"
         id="path134"
         inkscape:connector-curvature="0" /></g><g
       id="g136"
       transform="translate(326.8066,67.7166)"><path
         d="m 0,0 c -0.669,0 -1.183,-0.016 -1.539,-0.048 v -4.229 h 1.118 c 0.54,0 1.026,0.027 1.458,0.081 0.432,0.054 0.796,0.157 1.093,0.308 0.297,0.151 0.527,0.365 0.689,0.64 0.162,0.275 0.243,0.64 0.243,1.094 0,0.421 -0.081,0.772 -0.243,1.052 -0.162,0.281 -0.381,0.503 -0.656,0.665 -0.275,0.162 -0.6,0.275 -0.972,0.34 C 0.818,-0.032 0.421,0 0,0 m 2.381,-5.265 c 0.173,-0.216 0.392,-0.5 0.657,-0.85 0.264,-0.351 0.537,-0.74 0.818,-1.167 C 4.137,-7.708 4.415,-8.154 4.69,-8.618 4.965,-9.083 5.2,-9.531 5.395,-9.963 H 3.678 c -0.217,0.41 -0.451,0.826 -0.705,1.248 -0.254,0.421 -0.511,0.823 -0.769,1.206 -0.26,0.384 -0.517,0.743 -0.77,1.078 C 1.18,-6.097 0.95,-5.805 0.746,-5.557 0.605,-5.567 0.462,-5.573 0.316,-5.573 h -0.445 -1.41 v -4.39 H -3.11 V 1.102 c 0.443,0.107 0.937,0.18 1.482,0.218 0.545,0.038 1.045,0.057 1.499,0.057 1.576,0 2.778,-0.297 3.604,-0.891 0.826,-0.594 1.239,-1.48 1.239,-2.657 0,-0.745 -0.197,-1.382 -0.591,-1.912 C 3.729,-4.612 3.148,-5.006 2.381,-5.265"
         style="fill:#1d1d1b;fill-opacity:1;fill-rule:nonzero;stroke:none"
         id="path138"
         inkscape:connector-curvature="0" /></g><g
       id="g140"
       transform="translate(339.5722,62.16)"><path
         d="M 0,0 C 0,0.95 -0.213,1.704 -0.64,2.26 -1.066,2.816 -1.647,3.094 -2.381,3.094 -3.116,3.094 -3.696,2.816 -4.123,2.26 -4.549,1.704 -4.763,0.95 -4.763,0 c 0,-0.95 0.214,-1.704 0.64,-2.26 0.427,-0.556 1.007,-0.834 1.742,-0.834 0.734,0 1.315,0.278 1.741,0.834 C -0.213,-1.704 0,-0.95 0,0 m 1.572,0 c 0,-0.669 -0.097,-1.274 -0.292,-1.814 -0.195,-0.54 -0.467,-1.005 -0.818,-1.394 -0.351,-0.388 -0.77,-0.688 -1.255,-0.898 -0.487,-0.211 -1.016,-0.316 -1.588,-0.316 -0.573,0 -1.102,0.105 -1.588,0.316 -0.486,0.21 -0.905,0.51 -1.255,0.898 -0.351,0.389 -0.624,0.854 -0.818,1.394 -0.195,0.54 -0.292,1.145 -0.292,1.814 0,0.659 0.097,1.261 0.292,1.807 0.194,0.545 0.467,1.012 0.818,1.401 0.35,0.389 0.769,0.688 1.255,0.899 0.486,0.21 1.015,0.316 1.588,0.316 0.572,0 1.101,-0.106 1.588,-0.316 C -0.308,3.896 0.111,3.597 0.462,3.208 0.813,2.819 1.085,2.352 1.28,1.807 1.475,1.261 1.572,0.659 1.572,0"
         style="fill:#1d1d1b;fill-opacity:1;fill-rule:nonzero;stroke:none"
         id="path142"
         inkscape:connector-curvature="0" /></g><g
       id="g144"
       transform="translate(348.4496,65.0437)"><path
         d="M 0,0 C -0.227,-0.249 -0.526,-0.6 -0.899,-1.053 -1.271,-1.507 -1.671,-2.009 -2.098,-2.56 -2.524,-3.11 -2.951,-3.688 -3.377,-4.293 -3.804,-4.898 -4.179,-5.476 -4.503,-6.026 H 0.13 V -7.29 h -6.432 v 1.004 c 0.26,0.475 0.578,0.999 0.956,1.572 0.378,0.572 0.775,1.142 1.191,1.709 0.416,0.567 0.821,1.102 1.215,1.604 0.394,0.502 0.737,0.925 1.029,1.271 H -6.075 V 1.134 H 0 Z"
         style="fill:#1d1d1b;fill-opacity:1;fill-rule:nonzero;stroke:none"
         id="path146"
         inkscape:connector-curvature="0" /></g><g
       id="g148"
       transform="translate(357.2953,57.7537)"><path
         d="M 0,0 C -0.303,0.778 -0.624,1.666 -0.964,2.665 -1.304,3.664 -1.615,4.703 -1.896,5.783 -2.177,4.703 -2.484,3.664 -2.819,2.665 -3.154,1.666 -3.473,0.778 -3.775,0 H -5.087 C -5.584,1.112 -6.07,2.381 -6.545,3.807 -7.021,5.232 -7.468,6.771 -7.89,8.424 h 1.62 C -6.162,7.916 -6.032,7.365 -5.881,6.771 -5.729,6.178 -5.57,5.583 -5.403,4.99 -5.235,4.396 -5.06,3.823 -4.876,3.272 c 0.183,-0.55 0.356,-1.031 0.518,-1.441 0.184,0.507 0.364,1.044 0.543,1.611 0.178,0.567 0.348,1.14 0.51,1.718 0.162,0.577 0.316,1.144 0.462,1.701 0.146,0.556 0.272,1.077 0.381,1.563 h 1.247 C -1.118,7.938 -0.999,7.417 -0.859,6.861 -0.719,6.304 -0.567,5.737 -0.405,5.16 -0.243,4.582 -0.073,4.009 0.105,3.442 0.283,2.875 0.464,2.338 0.648,1.831 0.81,2.241 0.98,2.722 1.158,3.272 1.336,3.823 1.512,4.396 1.685,4.99 1.857,5.583 2.019,6.178 2.17,6.771 2.322,7.365 2.451,7.916 2.56,8.424 H 4.115 C 3.693,6.771 3.245,5.232 2.77,3.807 2.295,2.381 1.809,1.112 1.312,0 Z"
         style="fill:#1d1d1b;fill-opacity:1;fill-rule:nonzero;stroke:none"
         id="path150"
         inkscape:connector-curvature="0" /></g><g
       id="g152"
       transform="translate(368.5864,62.16)"><path
         d="M 0,0 C 0,0.95 -0.213,1.704 -0.64,2.26 -1.066,2.816 -1.647,3.094 -2.381,3.094 -3.116,3.094 -3.696,2.816 -4.123,2.26 -4.549,1.704 -4.763,0.95 -4.763,0 c 0,-0.95 0.214,-1.704 0.64,-2.26 0.427,-0.556 1.007,-0.834 1.742,-0.834 0.734,0 1.315,0.278 1.741,0.834 C -0.213,-1.704 0,-0.95 0,0 m 1.572,0 c 0,-0.669 -0.097,-1.274 -0.292,-1.814 -0.195,-0.54 -0.467,-1.005 -0.818,-1.394 -0.351,-0.388 -0.77,-0.688 -1.255,-0.898 -0.487,-0.211 -1.016,-0.316 -1.588,-0.316 -0.573,0 -1.102,0.105 -1.588,0.316 -0.486,0.21 -0.905,0.51 -1.255,0.898 -0.351,0.389 -0.624,0.854 -0.818,1.394 -0.195,0.54 -0.292,1.145 -0.292,1.814 0,0.659 0.097,1.261 0.292,1.807 0.194,0.545 0.467,1.012 0.818,1.401 0.35,0.389 0.769,0.688 1.255,0.899 0.486,0.21 1.015,0.316 1.588,0.316 0.572,0 1.101,-0.106 1.588,-0.316 C -0.308,3.896 0.111,3.597 0.462,3.208 0.813,2.819 1.085,2.352 1.28,1.807 1.475,1.261 1.572,0.659 1.572,0"
         style="fill:#1d1d1b;fill-opacity:1;fill-rule:nonzero;stroke:none"
         id="path154"
         inkscape:connector-curvature="0" /></g><g
       id="g156"
       transform="translate(372.9443,67.7005)"><path
         d="m 0,0 c -0.27,0 -0.5,0.089 -0.688,0.267 -0.189,0.178 -0.284,0.419 -0.284,0.721 0,0.303 0.095,0.543 0.284,0.721 C -0.5,1.887 -0.27,1.977 0,1.977 0.27,1.977 0.5,1.887 0.688,1.709 0.877,1.531 0.972,1.291 0.972,0.988 0.972,0.686 0.877,0.445 0.688,0.267 0.5,0.089 0.27,0 0,0 m -2.122,-12.976 c -0.129,0 -0.297,0.016 -0.502,0.048 -0.205,0.033 -0.378,0.076 -0.519,0.13 l 0.195,1.231 c 0.108,-0.032 0.232,-0.059 0.372,-0.081 0.141,-0.021 0.27,-0.032 0.389,-0.032 0.519,0 0.888,0.159 1.11,0.478 0.221,0.318 0.332,0.785 0.332,1.401 v 8.278 h 1.507 v -8.262 c 0,-1.08 -0.246,-1.882 -0.738,-2.405 -0.491,-0.524 -1.207,-0.786 -2.146,-0.786"
         style="fill:#1d1d1b;fill-opacity:1;fill-rule:nonzero;stroke:none"
         id="path158"
         inkscape:connector-curvature="0" /></g><g
       id="g160"
       transform="translate(382.9233,58.1751)"><path
         d="m 0,0 c -0.346,-0.087 -0.802,-0.178 -1.369,-0.275 -0.567,-0.098 -1.223,-0.146 -1.968,-0.146 -0.648,0 -1.194,0.094 -1.637,0.283 -0.443,0.189 -0.799,0.456 -1.069,0.802 -0.27,0.346 -0.464,0.753 -0.583,1.223 -0.119,0.47 -0.178,0.991 -0.178,1.563 v 4.731 h 1.507 V 3.774 c 0,-1.026 0.161,-1.76 0.485,-2.203 0.325,-0.443 0.87,-0.664 1.637,-0.664 0.162,0 0.329,0.005 0.502,0.016 0.173,0.011 0.335,0.025 0.486,0.041 0.151,0.016 0.289,0.032 0.413,0.048 0.124,0.016 0.213,0.035 0.267,0.057 V 8.181 H 0 Z"
         style="fill:#1d1d1b;fill-opacity:1;fill-rule:nonzero;stroke:none"
         id="path162"
         inkscape:connector-curvature="0" /></g><g
       id="g164"
       transform="translate(392.3027,67.7166)"><path
         d="m 0,0 c -0.669,0 -1.183,-0.016 -1.539,-0.048 v -4.229 h 1.118 c 0.54,0 1.026,0.027 1.458,0.081 0.432,0.054 0.796,0.157 1.093,0.308 0.297,0.151 0.527,0.365 0.689,0.64 0.162,0.275 0.243,0.64 0.243,1.094 0,0.421 -0.081,0.772 -0.243,1.052 -0.162,0.281 -0.381,0.503 -0.656,0.665 -0.275,0.162 -0.6,0.275 -0.972,0.34 C 0.818,-0.032 0.421,0 0,0 m 2.381,-5.265 c 0.173,-0.216 0.392,-0.5 0.657,-0.85 0.264,-0.351 0.537,-0.74 0.818,-1.167 C 4.137,-7.708 4.415,-8.154 4.69,-8.618 4.965,-9.083 5.2,-9.531 5.395,-9.963 H 3.678 c -0.217,0.41 -0.451,0.826 -0.705,1.248 -0.254,0.421 -0.511,0.823 -0.769,1.206 -0.26,0.384 -0.517,0.743 -0.77,1.078 C 1.18,-6.097 0.95,-5.805 0.746,-5.557 0.605,-5.567 0.462,-5.573 0.316,-5.573 h -0.445 -1.41 v -4.39 H -3.11 V 1.102 c 0.443,0.107 0.937,0.18 1.482,0.218 0.545,0.038 1.045,0.057 1.499,0.057 1.576,0 2.778,-0.297 3.604,-0.891 0.826,-0.594 1.239,-1.48 1.239,-2.657 0,-0.745 -0.197,-1.382 -0.591,-1.912 C 3.729,-4.612 3.148,-5.006 2.381,-5.265"
         style="fill:#1d1d1b;fill-opacity:1;fill-rule:nonzero;stroke:none"
         id="path166"
         inkscape:connector-curvature="0" /></g><g
       id="g168"
       transform="translate(404.517,62.97)"><path
         d="M 0,0 C 0.011,0.681 -0.159,1.239 -0.51,1.677 -0.861,2.114 -1.344,2.333 -1.96,2.333 -2.306,2.333 -2.611,2.265 -2.875,2.13 -3.14,1.995 -3.364,1.82 -3.547,1.604 -3.731,1.388 -3.875,1.14 -3.977,0.859 -4.08,0.578 -4.147,0.292 -4.179,0 Z m -5.783,-0.826 c 0,0.745 0.108,1.396 0.324,1.952 0.216,0.556 0.502,1.018 0.858,1.385 0.357,0.367 0.767,0.642 1.232,0.826 0.464,0.184 0.939,0.276 1.425,0.276 1.134,0 2.004,-0.354 2.609,-1.061 C 1.269,1.844 1.572,0.767 1.572,-0.68 v -0.252 c 0,-0.102 -0.006,-0.196 -0.016,-0.283 h -5.768 c 0.065,-0.875 0.318,-1.539 0.762,-1.993 0.442,-0.453 1.134,-0.68 2.073,-0.68 0.529,0 0.975,0.046 1.337,0.138 0.361,0.091 0.634,0.181 0.818,0.267 l 0.21,-1.264 C 0.805,-4.844 0.483,-4.946 0.024,-5.054 c -0.459,-0.109 -0.98,-0.162 -1.563,-0.162 -0.734,0 -1.369,0.111 -1.903,0.332 -0.535,0.221 -0.975,0.526 -1.321,0.915 -0.345,0.389 -0.602,0.85 -0.769,1.385 -0.168,0.535 -0.251,1.121 -0.251,1.758"
         style="fill:#1d1d1b;fill-opacity:1;fill-rule:nonzero;stroke:none"
         id="path170"
         inkscape:connector-curvature="0" /></g><g
       id="g172"
       transform="translate(413.4433,64.8494)"><path
         d="m 0,0 c -0.151,0.043 -0.354,0.083 -0.607,0.122 -0.254,0.037 -0.598,0.056 -1.029,0.056 -0.81,0 -1.434,-0.265 -1.871,-0.794 -0.438,-0.529 -0.657,-1.231 -0.657,-2.106 0,-0.486 0.062,-0.902 0.187,-1.247 0.124,-0.346 0.291,-0.632 0.502,-0.859 0.211,-0.227 0.454,-0.394 0.729,-0.502 0.275,-0.108 0.559,-0.162 0.85,-0.162 0.4,0 0.767,0.057 1.102,0.17 0.335,0.114 0.6,0.246 0.794,0.397 z m 0.016,-6.253 c -0.129,-0.087 -0.381,-0.198 -0.753,-0.332 -0.373,-0.136 -0.807,-0.203 -1.304,-0.203 -0.508,0 -0.986,0.081 -1.434,0.243 -0.448,0.162 -0.84,0.413 -1.174,0.753 -0.335,0.341 -0.6,0.764 -0.794,1.272 -0.195,0.508 -0.292,1.112 -0.292,1.814 0,0.616 0.092,1.18 0.276,1.693 0.183,0.513 0.45,0.956 0.801,1.329 0.351,0.372 0.781,0.664 1.288,0.874 0.508,0.211 1.08,0.316 1.718,0.316 0.701,0 1.314,-0.051 1.838,-0.153 C 0.71,1.25 1.15,1.155 1.506,1.069 v -7.517 c 0,-1.296 -0.334,-2.235 -1.004,-2.819 -0.669,-0.583 -1.685,-0.874 -3.045,-0.874 -0.53,0 -1.029,0.043 -1.499,0.129 -0.47,0.087 -0.877,0.189 -1.223,0.308 l 0.275,1.312 c 0.303,-0.118 0.673,-0.224 1.11,-0.316 0.438,-0.091 0.894,-0.137 1.369,-0.137 0.896,0 1.541,0.178 1.936,0.534 0.394,0.357 0.591,0.924 0.591,1.701 z"
         style="fill:#1d1d1b;fill-opacity:1;fill-rule:nonzero;stroke:none"
         id="path174"
         inkscape:connector-curvature="0" /></g><path
       d="m 418.968,57.754 h -1.507 v 8.424 h 1.507 z m -0.762,9.946 c -0.27,0 -0.5,0.09 -0.688,0.268 -0.189,0.178 -0.284,0.418 -0.284,0.721 0,0.302 0.095,0.542 0.284,0.72 0.188,0.179 0.418,0.268 0.688,0.268 0.27,0 0.5,-0.089 0.688,-0.268 0.189,-0.178 0.284,-0.418 0.284,-0.72 0,-0.303 -0.095,-0.543 -0.284,-0.721 -0.188,-0.178 -0.418,-0.268 -0.688,-0.268"
       style="fill:#1d1d1b;fill-opacity:1;fill-rule:nonzero;stroke:none"
       id="path176"
       inkscape:connector-curvature="0" /><g
       id="g178"
       transform="translate(427.3427,62.16)"><path
         d="M 0,0 C 0,0.95 -0.213,1.704 -0.64,2.26 -1.066,2.816 -1.647,3.094 -2.381,3.094 -3.116,3.094 -3.696,2.816 -4.123,2.26 -4.549,1.704 -4.763,0.95 -4.763,0 c 0,-0.95 0.214,-1.704 0.64,-2.26 0.427,-0.556 1.007,-0.834 1.742,-0.834 0.734,0 1.315,0.278 1.741,0.834 C -0.213,-1.704 0,-0.95 0,0 m 1.572,0 c 0,-0.669 -0.097,-1.274 -0.292,-1.814 -0.195,-0.54 -0.467,-1.005 -0.818,-1.394 -0.351,-0.388 -0.77,-0.688 -1.255,-0.898 -0.487,-0.211 -1.016,-0.316 -1.588,-0.316 -0.573,0 -1.102,0.105 -1.588,0.316 -0.486,0.21 -0.905,0.51 -1.255,0.898 -0.351,0.389 -0.624,0.854 -0.818,1.394 -0.195,0.54 -0.292,1.145 -0.292,1.814 0,0.659 0.097,1.261 0.292,1.807 0.194,0.545 0.467,1.012 0.818,1.401 0.35,0.389 0.769,0.688 1.255,0.899 0.486,0.21 1.015,0.316 1.588,0.316 0.572,0 1.101,-0.106 1.588,-0.316 C -0.308,3.896 0.111,3.597 0.462,3.208 0.813,2.819 1.085,2.352 1.28,1.807 1.475,1.261 1.572,0.659 1.572,0"
         style="fill:#1d1d1b;fill-opacity:1;fill-rule:nonzero;stroke:none"
         id="path180"
         inkscape:connector-curvature="0" /></g><g
       id="g182"
       transform="translate(430.955,65.9349)"><path
         d="m 0,0 c 0.346,0.086 0.805,0.178 1.377,0.275 0.572,0.098 1.231,0.146 1.977,0.146 0.669,0 1.225,-0.095 1.668,-0.283 0.443,-0.19 0.796,-0.454 1.061,-0.794 0.265,-0.341 0.451,-0.748 0.559,-1.223 0.108,-0.475 0.162,-0.999 0.162,-1.572 v -4.73 H 5.297 v 4.406 c 0,0.519 -0.035,0.962 -0.105,1.329 -0.07,0.367 -0.186,0.664 -0.348,0.891 -0.162,0.226 -0.378,0.391 -0.648,0.494 -0.27,0.103 -0.605,0.154 -1.005,0.154 -0.162,0 -0.329,-0.006 -0.502,-0.016 C 2.517,-0.935 2.352,-0.948 2.195,-0.964 2.039,-0.98 1.898,-0.999 1.774,-1.021 1.65,-1.042 1.561,-1.059 1.507,-1.069 V -8.181 H 0 Z"
         style="fill:#1d1d1b;fill-opacity:1;fill-rule:nonzero;stroke:none"
         id="path184"
         inkscape:connector-curvature="0" /></g><g
       id="g186"
       transform="translate(443.0239,59.0013)"><path
         d="M 0,0 C 0.356,0 0.672,0.008 0.948,0.024 1.223,0.041 1.453,0.07 1.636,0.113 V 2.624 C 1.528,2.678 1.353,2.724 1.11,2.762 0.867,2.8 0.573,2.819 0.227,2.819 0,2.819 -0.24,2.802 -0.494,2.77 -0.748,2.738 -0.98,2.67 -1.19,2.567 -1.401,2.465 -1.577,2.325 -1.717,2.146 -1.857,1.968 -1.928,1.733 -1.928,1.441 c 0,-0.54 0.173,-0.915 0.519,-1.125 C -1.063,0.105 -0.594,0 0,0 m -0.129,7.549 c 0.605,0 1.115,-0.078 1.53,-0.235 C 1.817,7.157 2.152,6.936 2.406,6.65 2.66,6.364 2.84,6.023 2.949,5.629 3.057,5.235 3.111,4.8 3.111,4.325 V -0.94 C 2.981,-0.961 2.8,-0.991 2.568,-1.029 2.335,-1.067 2.074,-1.102 1.782,-1.134 1.491,-1.167 1.175,-1.196 0.834,-1.223 0.494,-1.25 0.157,-1.264 -0.178,-1.264 c -0.475,0 -0.913,0.049 -1.312,0.146 -0.4,0.097 -0.745,0.251 -1.037,0.462 -0.291,0.21 -0.518,0.488 -0.681,0.834 -0.161,0.345 -0.242,0.761 -0.242,1.247 0,0.465 0.094,0.865 0.283,1.199 0.189,0.335 0.446,0.605 0.77,0.81 0.324,0.205 0.702,0.357 1.134,0.454 0.431,0.097 0.885,0.146 1.361,0.146 0.151,0 0.307,-0.009 0.469,-0.025 C 0.729,3.993 0.883,3.971 1.029,3.944 1.175,3.917 1.302,3.893 1.41,3.872 1.518,3.85 1.593,3.833 1.636,3.823 v 0.421 c 0,0.249 -0.027,0.494 -0.08,0.737 C 1.501,5.224 1.404,5.44 1.264,5.629 1.124,5.818 0.932,5.97 0.689,6.083 0.446,6.196 0.13,6.253 -0.259,6.253 -0.756,6.253 -1.19,6.218 -1.563,6.148 -1.936,6.077 -2.214,6.004 -2.397,5.929 l -0.179,1.247 c 0.195,0.087 0.519,0.171 0.972,0.252 0.454,0.08 0.945,0.121 1.475,0.121"
         style="fill:#1d1d1b;fill-opacity:1;fill-rule:nonzero;stroke:none"
         id="path188"
         inkscape:connector-curvature="0" /></g><g
       id="g190"
       transform="translate(451.0751,57.7537)"><path
         d="M 0,0 C -0.929,0.021 -1.587,0.221 -1.977,0.6 -2.365,0.978 -2.56,1.566 -2.56,2.365 v 10.109 l 1.507,0.259 V 2.608 c 0,-0.248 0.021,-0.453 0.065,-0.615 0.043,-0.162 0.113,-0.292 0.21,-0.389 0.097,-0.097 0.227,-0.17 0.389,-0.219 0.162,-0.049 0.362,-0.089 0.599,-0.121 z"
         style="fill:#1d1d1b;fill-opacity:1;fill-rule:nonzero;stroke:none"
         id="path192"
         inkscape:connector-curvature="0" /></g><g
       id="g194"
       transform="translate(452.8896,65.9349)"><path
         d="m 0,0 c 0.346,0.086 0.805,0.178 1.377,0.275 0.572,0.098 1.231,0.146 1.977,0.146 0.669,0 1.225,-0.095 1.668,-0.283 0.443,-0.19 0.796,-0.454 1.061,-0.794 0.265,-0.341 0.451,-0.748 0.559,-1.223 0.108,-0.475 0.162,-0.999 0.162,-1.572 v -4.73 H 5.297 v 4.406 c 0,0.519 -0.035,0.962 -0.105,1.329 -0.07,0.367 -0.186,0.664 -0.348,0.891 -0.162,0.226 -0.378,0.391 -0.648,0.494 -0.27,0.103 -0.605,0.154 -1.005,0.154 -0.162,0 -0.329,-0.006 -0.502,-0.016 C 2.517,-0.935 2.352,-0.948 2.195,-0.964 2.039,-0.98 1.898,-0.999 1.774,-1.021 1.65,-1.042 1.561,-1.059 1.507,-1.069 V -8.181 H 0 Z"
         style="fill:#1d1d1b;fill-opacity:1;fill-rule:nonzero;stroke:none"
         id="path196"
         inkscape:connector-curvature="0" /></g><g
       id="g198"
       transform="translate(467.4208,62.97)"><path
         d="M 0,0 C 0.011,0.681 -0.159,1.239 -0.51,1.677 -0.861,2.114 -1.344,2.333 -1.96,2.333 -2.306,2.333 -2.611,2.265 -2.875,2.13 -3.14,1.995 -3.364,1.82 -3.547,1.604 -3.731,1.388 -3.875,1.14 -3.977,0.859 -4.08,0.578 -4.147,0.292 -4.179,0 Z m -5.783,-0.826 c 0,0.745 0.108,1.396 0.324,1.952 0.216,0.556 0.502,1.018 0.858,1.385 0.357,0.367 0.767,0.642 1.232,0.826 0.464,0.184 0.939,0.276 1.425,0.276 1.134,0 2.004,-0.354 2.609,-1.061 C 1.269,1.844 1.572,0.767 1.572,-0.68 v -0.252 c 0,-0.102 -0.006,-0.196 -0.016,-0.283 h -5.768 c 0.065,-0.875 0.318,-1.539 0.762,-1.993 0.442,-0.453 1.134,-0.68 2.073,-0.68 0.529,0 0.975,0.046 1.337,0.138 0.361,0.091 0.634,0.181 0.818,0.267 l 0.21,-1.264 C 0.805,-4.844 0.483,-4.946 0.024,-5.054 c -0.459,-0.109 -0.98,-0.162 -1.563,-0.162 -0.734,0 -1.369,0.111 -1.903,0.332 -0.535,0.221 -0.975,0.526 -1.321,0.915 -0.345,0.389 -0.602,0.85 -0.769,1.385 -0.168,0.535 -0.251,1.121 -0.251,1.758"
         style="fill:#1d1d1b;fill-opacity:1;fill-rule:nonzero;stroke:none"
         id="path200"
         inkscape:connector-curvature="0" /></g><g
       id="g202"
       transform="translate(476.3471,64.8494)"><path
         d="m 0,0 c -0.151,0.043 -0.354,0.083 -0.607,0.122 -0.254,0.037 -0.598,0.056 -1.029,0.056 -0.81,0 -1.434,-0.265 -1.871,-0.794 -0.438,-0.529 -0.657,-1.231 -0.657,-2.106 0,-0.486 0.062,-0.902 0.187,-1.247 0.124,-0.346 0.291,-0.632 0.502,-0.859 0.211,-0.227 0.454,-0.394 0.729,-0.502 0.275,-0.108 0.559,-0.162 0.85,-0.162 0.4,0 0.767,0.057 1.102,0.17 0.335,0.114 0.6,0.246 0.794,0.397 z m 0.016,-6.253 c -0.129,-0.087 -0.381,-0.198 -0.753,-0.332 -0.373,-0.136 -0.807,-0.203 -1.304,-0.203 -0.508,0 -0.986,0.081 -1.434,0.243 -0.448,0.162 -0.84,0.413 -1.174,0.753 -0.335,0.341 -0.6,0.764 -0.794,1.272 -0.195,0.508 -0.292,1.112 -0.292,1.814 0,0.616 0.092,1.18 0.276,1.693 0.183,0.513 0.45,0.956 0.801,1.329 0.351,0.372 0.781,0.664 1.288,0.874 0.508,0.211 1.08,0.316 1.718,0.316 0.701,0 1.314,-0.051 1.838,-0.153 C 0.71,1.25 1.15,1.155 1.506,1.069 v -7.517 c 0,-1.296 -0.334,-2.235 -1.004,-2.819 -0.669,-0.583 -1.685,-0.874 -3.045,-0.874 -0.53,0 -1.029,0.043 -1.499,0.129 -0.47,0.087 -0.877,0.189 -1.223,0.308 l 0.275,1.312 c 0.303,-0.118 0.673,-0.224 1.11,-0.316 0.438,-0.091 0.894,-0.137 1.369,-0.137 0.896,0 1.541,0.178 1.936,0.534 0.394,0.357 0.591,0.924 0.591,1.701 z"
         style="fill:#1d1d1b;fill-opacity:1;fill-rule:nonzero;stroke:none"
         id="path204"
         inkscape:connector-curvature="0" /></g><g
       id="g206"
       transform="translate(486.2285,62.16)"><path
         d="M 0,0 C 0,0.95 -0.213,1.704 -0.64,2.26 -1.066,2.816 -1.647,3.094 -2.381,3.094 -3.116,3.094 -3.696,2.816 -4.123,2.26 -4.549,1.704 -4.763,0.95 -4.763,0 c 0,-0.95 0.214,-1.704 0.64,-2.26 0.427,-0.556 1.007,-0.834 1.742,-0.834 0.734,0 1.315,0.278 1.741,0.834 C -0.213,-1.704 0,-0.95 0,0 m 1.572,0 c 0,-0.669 -0.097,-1.274 -0.292,-1.814 -0.195,-0.54 -0.467,-1.005 -0.818,-1.394 -0.351,-0.388 -0.77,-0.688 -1.255,-0.898 -0.487,-0.211 -1.016,-0.316 -1.588,-0.316 -0.573,0 -1.102,0.105 -1.588,0.316 -0.486,0.21 -0.905,0.51 -1.255,0.898 -0.351,0.389 -0.624,0.854 -0.818,1.394 -0.195,0.54 -0.292,1.145 -0.292,1.814 0,0.659 0.097,1.261 0.292,1.807 0.194,0.545 0.467,1.012 0.818,1.401 0.35,0.389 0.769,0.688 1.255,0.899 0.486,0.21 1.015,0.316 1.588,0.316 0.572,0 1.101,-0.106 1.588,-0.316 C -0.308,3.896 0.111,3.597 0.462,3.208 0.813,2.819 1.085,2.352 1.28,1.807 1.475,1.261 1.572,0.659 1.572,0"
         style="fill:#1d1d1b;fill-opacity:1;fill-rule:nonzero;stroke:none"
         id="path208"
         inkscape:connector-curvature="0" /></g><g
       id="g210"
       transform="translate(317.1269,100.2503)"><path
         d="M 0,0 C -1.162,0 -2.16,0.167 -2.995,0.503 -3.83,0.838 -4.521,1.309 -5.069,1.915 -5.618,2.52 -6.022,3.232 -6.284,4.05 -6.546,4.869 -6.677,5.769 -6.677,6.75 V 17.38 H -3.56 V 7.045 c 0,-0.769 0.086,-1.428 0.258,-1.976 0.172,-0.548 0.418,-0.994 0.737,-1.338 0.319,-0.343 0.695,-0.597 1.129,-0.761 0.434,-0.163 0.92,-0.245 1.46,-0.245 0.54,0 1.032,0.082 1.474,0.245 0.441,0.164 0.822,0.418 1.141,0.761 0.319,0.344 0.565,0.79 0.736,1.338 0.172,0.548 0.258,1.207 0.258,1.976 V 17.38 H 6.75 V 6.75 C 6.75,5.769 6.616,4.869 6.346,4.05 6.076,3.232 5.667,2.52 5.118,1.915 4.57,1.309 3.87,0.838 3.02,0.503 2.168,0.167 1.162,0 0,0"
         style="fill:#1d1d1b;fill-opacity:1;fill-rule:nonzero;stroke:none"
         id="path212"
         inkscape:connector-curvature="0" /></g><g
       id="g214"
       transform="translate(327.5351,112.6961)"><path
         d="m 0,0 c 0.573,0.163 1.317,0.319 2.234,0.466 0.916,0.148 1.931,0.221 3.044,0.221 1.047,0 1.923,-0.143 2.626,-0.429 0.704,-0.287 1.265,-0.688 1.682,-1.203 0.417,-0.515 0.712,-1.138 0.884,-1.866 0.172,-0.728 0.258,-1.526 0.258,-2.393 v -7.217 H 7.757 v 6.75 c 0,0.688 -0.045,1.273 -0.135,1.755 C 7.532,-3.433 7.385,-3.04 7.18,-2.737 6.976,-2.435 6.697,-2.214 6.346,-2.074 5.994,-1.936 5.564,-1.866 5.057,-1.866 4.68,-1.866 4.288,-1.89 3.878,-1.939 3.469,-1.988 3.167,-2.029 2.97,-2.062 V -12.421 H 0 Z"
         style="fill:#1d1d1b;fill-opacity:1;fill-rule:nonzero;stroke:none"
         id="path216"
         inkscape:connector-curvature="0" /></g><path
       d="m 344.743,100.275 h -2.971 v 12.838 h 2.971 z m 0.319,16.594 c 0,-0.556 -0.18,-0.998 -0.54,-1.325 -0.36,-0.328 -0.786,-0.491 -1.276,-0.491 -0.508,0 -0.942,0.163 -1.302,0.491 -0.36,0.327 -0.54,0.769 -0.54,1.325 0,0.573 0.18,1.023 0.54,1.351 0.36,0.327 0.794,0.49 1.302,0.49 0.49,0 0.916,-0.163 1.276,-0.49 0.36,-0.328 0.54,-0.778 0.54,-1.351"
       style="fill:#1d1d1b;fill-opacity:1;fill-rule:nonzero;stroke:none"
       id="path218"
       inkscape:connector-curvature="0" /><g
       id="g220"
       transform="translate(352.8925,102.6067)"><path
         d="m 0,0 c 0.916,0 1.611,0.049 2.086,0.147 v 3.29 C 1.923,3.486 1.685,3.535 1.375,3.584 1.063,3.633 0.72,3.658 0.343,3.658 0.016,3.658 -0.315,3.633 -0.651,3.584 -0.986,3.535 -1.289,3.445 -1.559,3.314 -1.829,3.183 -2.046,2.999 -2.209,2.762 -2.374,2.524 -2.455,2.226 -2.455,1.866 -2.455,1.162 -2.234,0.675 -1.792,0.405 -1.35,0.135 -0.753,0 0,0 m -0.246,11.071 c 0.982,0 1.808,-0.123 2.48,-0.368 C 2.904,10.458 3.44,10.114 3.842,9.672 4.242,9.23 4.529,8.694 4.701,8.064 4.873,7.434 4.958,6.742 4.958,5.99 V -1.792 C 4.5,-1.89 3.809,-2.009 2.884,-2.148 1.959,-2.287 0.916,-2.356 -0.246,-2.356 c -0.769,0 -1.473,0.073 -2.111,0.22 -0.638,0.148 -1.183,0.385 -1.632,0.712 -0.45,0.327 -0.803,0.753 -1.056,1.277 -0.254,0.523 -0.38,1.169 -0.38,1.939 0,0.736 0.143,1.358 0.429,1.866 0.287,0.507 0.675,0.92 1.166,1.239 0.491,0.319 1.059,0.548 1.706,0.687 0.647,0.14 1.322,0.209 2.026,0.209 0.327,0 0.67,-0.021 1.031,-0.061 C 1.292,5.691 1.677,5.622 2.086,5.523 V 6.014 C 2.086,6.358 2.045,6.685 1.964,6.996 1.881,7.307 1.738,7.581 1.534,7.818 1.329,8.056 1.059,8.24 0.724,8.371 0.388,8.501 -0.033,8.567 -0.54,8.567 -1.228,8.567 -1.858,8.518 -2.431,8.42 -3.003,8.322 -3.47,8.207 -3.83,8.076 l -0.368,2.406 c 0.376,0.131 0.925,0.262 1.645,0.393 0.72,0.13 1.489,0.196 2.307,0.196"
         style="fill:#1d1d1b;fill-opacity:1;fill-rule:nonzero;stroke:none"
         id="path222"
         inkscape:connector-curvature="0" /></g><g
       id="g224"
       transform="translate(367.0566,100.2747)"><path
         d="M 0,0 V 17.012 H 10.924 V 14.385 H 3.093 v -4.197 h 6.971 V 7.61 H 3.093 V 2.626 h 8.42 V 0 Z"
         style="fill:#1d1d1b;fill-opacity:1;fill-rule:nonzero;stroke:none"
         id="path226"
         inkscape:connector-curvature="0" /></g><g
       id="g228"
       transform="translate(391.2607,100.9373)"><path
         d="m 0,0 c -0.573,-0.147 -1.317,-0.299 -2.234,-0.454 -0.917,-0.156 -1.923,-0.233 -3.019,-0.233 -1.031,0 -1.895,0.147 -2.59,0.442 -0.696,0.294 -1.252,0.703 -1.669,1.227 -0.418,0.524 -0.717,1.15 -0.897,1.878 -0.18,0.728 -0.27,1.526 -0.27,2.393 v 7.193 h 2.971 V 5.72 c 0,-1.375 0.2,-2.357 0.601,-2.946 0.401,-0.589 1.101,-0.883 2.099,-0.883 0.36,0 0.74,0.016 1.142,0.048 0.401,0.033 0.699,0.074 0.896,0.123 V 12.446 H 0 Z"
         style="fill:#1d1d1b;fill-opacity:1;fill-rule:nonzero;stroke:none"
         id="path230"
         inkscape:connector-curvature="0" /></g><g
       id="g232"
       transform="translate(402.2089,110.4378)"><path
         d="m 0,0 c -0.246,0.082 -0.585,0.167 -1.019,0.257 -0.434,0.09 -0.937,0.136 -1.509,0.136 -0.328,0 -0.676,-0.034 -1.044,-0.099 C -3.94,0.229 -4.198,0.172 -4.345,0.123 v -10.286 h -2.97 V 2.062 c 0.572,0.212 1.289,0.413 2.148,0.601 0.859,0.188 1.812,0.283 2.859,0.283 0.197,0 0.426,-0.013 0.688,-0.037 0.262,-0.025 0.523,-0.058 0.786,-0.098 0.261,-0.041 0.515,-0.091 0.76,-0.148 0.246,-0.057 0.442,-0.11 0.59,-0.159 z"
         style="fill:#1d1d1b;fill-opacity:1;fill-rule:nonzero;stroke:none"
         id="path234"
         inkscape:connector-curvature="0" /></g><g
       id="g236"
       transform="translate(413.2065,107.0252)"><path
         d="M 0,0 C 0,1.277 -0.274,2.287 -0.822,3.032 -1.371,3.776 -2.136,4.149 -3.118,4.149 -4.1,4.149 -4.865,3.776 -5.413,3.032 -5.961,2.287 -6.235,1.277 -6.235,0 c 0,-1.293 0.274,-2.316 0.822,-3.068 0.548,-0.753 1.313,-1.129 2.295,-1.129 0.982,0 1.747,0.376 2.296,1.129 C -0.274,-2.316 0,-1.293 0,0 M 3.044,0 C 3.044,-1.015 2.896,-1.939 2.602,-2.774 2.308,-3.608 1.89,-4.32 1.35,-4.909 0.81,-5.499 0.16,-5.957 -0.602,-6.284 c -0.76,-0.328 -1.599,-0.491 -2.516,-0.491 -0.916,0 -1.751,0.163 -2.504,0.491 -0.753,0.327 -1.399,0.785 -1.939,1.375 -0.54,0.589 -0.961,1.301 -1.264,2.135 -0.303,0.835 -0.454,1.759 -0.454,2.774 0,1.015 0.151,1.935 0.454,2.762 0.303,0.826 0.728,1.534 1.277,2.123 0.548,0.59 1.198,1.044 1.951,1.363 0.753,0.319 1.579,0.479 2.479,0.479 0.9,0 1.731,-0.16 2.492,-0.479 C 0.135,5.929 0.786,5.475 1.326,4.885 1.866,4.296 2.287,3.588 2.59,2.762 2.893,1.935 3.044,1.015 3.044,0"
         style="fill:#1d1d1b;fill-opacity:1;fill-rule:nonzero;stroke:none"
         id="path238"
         inkscape:connector-curvature="0" /></g><g
       id="g240"
       transform="translate(427.6894,106.6326)"><path
         d="M 0,0 C 0,1.326 -0.299,2.356 -0.896,3.093 -1.494,3.83 -2.455,4.198 -3.78,4.198 -4.059,4.198 -4.349,4.186 -4.652,4.161 -4.955,4.136 -5.253,4.083 -5.548,4.001 v -7.339 c 0.262,-0.181 0.61,-0.349 1.044,-0.504 0.433,-0.156 0.896,-0.233 1.386,-0.233 1.081,0 1.87,0.368 2.369,1.105 C -0.25,-2.234 0,-1.244 0,0 m 3.044,0.049 c 0,-0.982 -0.127,-1.882 -0.38,-2.7 C 2.41,-3.47 2.046,-4.173 1.571,-4.762 1.096,-5.352 0.503,-5.81 -0.208,-6.137 -0.92,-6.464 -1.727,-6.628 -2.626,-6.628 c -0.606,0 -1.163,0.074 -1.67,0.221 -0.507,0.147 -0.925,0.311 -1.252,0.491 v -4.983 h -2.97 V 6.063 c 0.605,0.164 1.35,0.319 2.234,0.467 0.884,0.147 1.816,0.221 2.798,0.221 1.015,0 1.923,-0.156 2.725,-0.467 C 0.041,5.973 0.724,5.527 1.289,4.946 1.854,4.365 2.287,3.662 2.59,2.835 2.893,2.009 3.044,1.08 3.044,0.049"
         style="fill:#1d1d1b;fill-opacity:1;fill-rule:nonzero;stroke:none"
         id="path242"
         inkscape:connector-curvature="0" /></g><g
       id="g244"
       transform="translate(441.5585,108.2527)"><path
         d="m 0,0 c 0,0.409 -0.057,0.798 -0.171,1.166 -0.115,0.368 -0.283,0.688 -0.504,0.958 -0.221,0.27 -0.491,0.482 -0.81,0.638 -0.319,0.155 -0.7,0.233 -1.141,0.233 -0.459,0 -0.859,-0.086 -1.203,-0.258 C -4.173,2.565 -4.464,2.34 -4.701,2.062 -4.938,1.784 -5.122,1.464 -5.253,1.105 -5.384,0.745 -5.474,0.376 -5.523,0 Z m -8.616,-1.326 c 0,1.13 0.167,2.119 0.503,2.971 0.335,0.851 0.781,1.559 1.338,2.123 0.556,0.565 1.194,0.99 1.915,1.277 0.72,0.286 1.456,0.429 2.209,0.429 1.768,0 3.146,-0.548 4.136,-1.644 C 2.476,2.733 2.971,1.096 2.971,-1.08 2.971,-1.244 2.966,-1.428 2.958,-1.632 2.95,-1.837 2.938,-2.021 2.921,-2.185 h -8.469 c 0.082,-1.031 0.446,-1.829 1.093,-2.393 0.646,-0.565 1.583,-0.847 2.81,-0.847 0.721,0 1.379,0.065 1.977,0.196 0.597,0.131 1.067,0.271 1.411,0.417 l 0.393,-2.43 C 1.972,-7.324 1.747,-7.41 1.461,-7.5 1.174,-7.589 0.847,-7.671 0.479,-7.745 0.111,-7.818 -0.286,-7.88 -0.711,-7.929 c -0.426,-0.049 -0.86,-0.073 -1.302,-0.073 -1.129,0 -2.111,0.167 -2.945,0.502 -0.835,0.336 -1.522,0.802 -2.063,1.4 -0.54,0.597 -0.941,1.301 -1.202,2.111 -0.262,0.81 -0.393,1.697 -0.393,2.663"
         style="fill:#1d1d1b;fill-opacity:1;fill-rule:nonzero;stroke:none"
         id="path246"
         inkscape:connector-curvature="0" /></g><g
       id="g248"
       transform="translate(450.8134,116.8689)"><path
         d="m 0,0 c 0,-0.556 -0.18,-0.998 -0.54,-1.325 -0.36,-0.328 -0.786,-0.491 -1.276,-0.491 -0.508,0 -0.942,0.163 -1.302,0.491 -0.36,0.327 -0.54,0.769 -0.54,1.325 0,0.573 0.18,1.023 0.54,1.351 0.36,0.327 0.794,0.49 1.302,0.49 0.49,0 0.916,-0.163 1.276,-0.49 C -0.18,1.023 0,0.573 0,0 m -4.934,-21.16 c -0.213,0 -0.511,0.02 -0.896,0.061 -0.384,0.041 -0.724,0.119 -1.019,0.233 l 0.393,2.43 c 0.36,-0.114 0.794,-0.171 1.301,-0.171 0.687,0 1.17,0.2 1.448,0.601 0.278,0.402 0.417,1.003 0.417,1.804 v 12.446 h 2.971 V -16.25 c 0,-1.67 -0.397,-2.905 -1.191,-3.708 -0.794,-0.801 -1.935,-1.202 -3.424,-1.202"
         style="fill:#1d1d1b;fill-opacity:1;fill-rule:nonzero;stroke:none"
         id="path250"
         inkscape:connector-curvature="0" /></g><g
       id="g252"
       transform="translate(457.3432,102.7049)"><path
         d="m 0,0 c 0.786,0 1.358,0.094 1.718,0.282 0.36,0.188 0.54,0.511 0.54,0.97 0,0.425 -0.192,0.777 -0.576,1.056 C 1.297,2.585 0.663,2.888 -0.221,3.216 -0.761,3.412 -1.256,3.621 -1.706,3.842 -2.156,4.063 -2.545,4.32 -2.872,4.615 -3.2,4.91 -3.458,5.266 -3.646,5.683 -3.833,6.1 -3.928,6.611 -3.928,7.217 c 0,1.179 0.434,2.107 1.302,2.786 0.867,0.679 2.045,1.019 3.534,1.019 0.753,0 1.473,-0.07 2.16,-0.209 0.688,-0.139 1.203,-0.274 1.547,-0.405 L 4.075,8.003 C 3.748,8.15 3.33,8.285 2.823,8.408 2.315,8.531 1.727,8.592 1.056,8.592 0.45,8.592 -0.041,8.489 -0.417,8.285 -0.794,8.08 -0.982,7.765 -0.982,7.34 c 0,-0.213 0.037,-0.401 0.11,-0.565 C -0.798,6.611 -0.671,6.46 -0.491,6.321 -0.311,6.182 -0.074,6.043 0.221,5.904 0.516,5.765 0.875,5.622 1.301,5.474 2.004,5.212 2.602,4.955 3.093,4.701 3.584,4.447 3.989,4.161 4.308,3.842 4.627,3.523 4.86,3.158 5.008,2.75 5.155,2.34 5.229,1.849 5.229,1.276 5.229,0.049 4.774,-0.88 3.866,-1.51 2.958,-2.14 1.661,-2.455 -0.024,-2.455 c -1.13,0 -2.038,0.094 -2.726,0.283 -0.687,0.188 -1.169,0.339 -1.448,0.454 l 0.516,2.479 C -3.24,0.581 -2.712,0.409 -2.099,0.246 -1.485,0.082 -0.786,0 0,0"
         style="fill:#1d1d1b;fill-opacity:1;fill-rule:nonzero;stroke:none"
         id="path254"
         inkscape:connector-curvature="0" /></g><g
       id="g256"
       transform="translate(468.1684,108.1058)"><path
         d="m 0,0 c 0.376,0.393 0.777,0.813 1.203,1.264 0.425,0.45 0.843,0.9 1.252,1.35 0.409,0.45 0.798,0.884 1.166,1.301 0.368,0.418 0.683,0.781 0.945,1.092 H 8.077 C 7.258,4.091 6.395,3.142 5.487,2.16 4.578,1.178 3.666,0.221 2.75,-0.712 3.241,-1.122 3.756,-1.617 4.296,-2.197 4.836,-2.778 5.36,-3.396 5.867,-4.051 6.374,-4.706 6.849,-5.36 7.291,-6.015 7.733,-6.669 8.101,-7.275 8.396,-7.831 H 4.959 C 4.664,-7.324 4.324,-6.792 3.94,-6.235 3.555,-5.679 3.142,-5.139 2.701,-4.615 2.259,-4.092 1.808,-3.597 1.35,-3.13 0.892,-2.664 0.442,-2.267 0,-1.939 V -7.831 H -2.97 V 8.69 L 0,9.181 Z"
         style="fill:#1d1d1b;fill-opacity:1;fill-rule:nonzero;stroke:none"
         id="path258"
         inkscape:connector-curvature="0" /></g><g
       id="g260"
       transform="translate(483.0937,102.6067)"><path
         d="m 0,0 c 0.916,0 1.611,0.049 2.086,0.147 v 3.29 C 1.923,3.486 1.685,3.535 1.375,3.584 1.063,3.633 0.72,3.658 0.343,3.658 0.016,3.658 -0.315,3.633 -0.651,3.584 -0.986,3.535 -1.289,3.445 -1.559,3.314 -1.829,3.183 -2.046,2.999 -2.209,2.762 -2.374,2.524 -2.455,2.226 -2.455,1.866 -2.455,1.162 -2.234,0.675 -1.792,0.405 -1.35,0.135 -0.753,0 0,0 m -0.246,11.071 c 0.982,0 1.808,-0.123 2.48,-0.368 C 2.904,10.458 3.44,10.114 3.842,9.672 4.242,9.23 4.529,8.694 4.701,8.064 4.873,7.434 4.958,6.742 4.958,5.99 V -1.792 C 4.5,-1.89 3.809,-2.009 2.884,-2.148 1.959,-2.287 0.916,-2.356 -0.246,-2.356 c -0.769,0 -1.473,0.073 -2.111,0.22 -0.638,0.148 -1.183,0.385 -1.632,0.712 -0.45,0.327 -0.803,0.753 -1.056,1.277 -0.254,0.523 -0.38,1.169 -0.38,1.939 0,0.736 0.143,1.358 0.429,1.866 0.287,0.507 0.675,0.92 1.166,1.239 0.491,0.319 1.059,0.548 1.706,0.687 0.647,0.14 1.322,0.209 2.026,0.209 0.327,0 0.67,-0.021 1.031,-0.061 C 1.292,5.691 1.677,5.622 2.086,5.523 V 6.014 C 2.086,6.358 2.045,6.685 1.964,6.996 1.881,7.307 1.738,7.581 1.534,7.818 1.329,8.056 1.059,8.24 0.724,8.371 0.388,8.501 -0.033,8.567 -0.54,8.567 -1.228,8.567 -1.858,8.518 -2.431,8.42 -3.003,8.322 -3.47,8.207 -3.83,8.076 l -0.368,2.406 c 0.376,0.131 0.925,0.262 1.645,0.393 0.72,0.13 1.489,0.196 2.307,0.196"
         style="fill:#1d1d1b;fill-opacity:1;fill-rule:nonzero;stroke:none"
         id="path262"
         inkscape:connector-curvature="0" /></g></g></svg>