<?xml version="1.0" encoding="UTF-8" standalone="no"?>
<svg
   xmlns:dc="http://purl.org/dc/elements/1.1/"
   xmlns:cc="http://creativecommons.org/ns#"
   xmlns:rdf="http://www.w3.org/1999/02/22-rdf-syntax-ns#"
   xmlns:svg="http://www.w3.org/2000/svg"
   xmlns="http://www.w3.org/2000/svg"
   viewBox="0 0 140.21333 102.21333"
   height="102.21333"
   width="140.21333"
   xml:space="preserve"
   id="svg2"
   version="1.1"><metadata
     id="metadata8"><rdf:RDF><cc:Work
         rdf:about=""><dc:format>image/svg+xml</dc:format><dc:type
           rdf:resource="http://purl.org/dc/dcmitype/StillImage" /></cc:Work></rdf:RDF></metadata><defs
     id="defs6" /><g
     transform="matrix(1.3333333,0,0,-1.3333333,0,102.21333)"
     id="g10"><g
       transform="scale(0.1)"
       id="g12"><path
         id="path14"
         style="fill:#66a531;fill-opacity:1;fill-rule:nonzero;stroke:none"
         d="m 1051.61,386.898 c -0.01,0.141 -0.02,0.286 -0.02,0.418 v 6.336 h -0.37 c -1.97,19.297 -11.73,37.172 -27.49,50.379 -15.96,13.367 -36.667,20.723 -58.332,20.723 -39.929,0 -70.457,-17.043 -81.89,-45.664 -11.34,28.621 -41.574,45.664 -81.145,45.664 -26.328,0 -50.879,-10.586 -67.547,-29.098 V 458.48 H 657.695 V 203.172 h 77.121 v 158.859 c 5.848,16.035 22.059,26.801 40.372,26.801 18.843,0 35.652,-11.672 40.906,-28.394 V 203.172 h 77.121 V 354.98 c 5.633,16.418 21.765,33.852 40.625,33.852 18.672,0 34.988,-11.031 40.633,-27.457 V 203.172 h 77.117 v 182.125 c 0,0.156 0.02,0.312 0.02,0.465 0.02,0.195 0.03,0.39 0.03,0.586 0,0.183 -0.01,0.371 -0.03,0.55" /><path
         id="path16"
         style="fill:#66a531;fill-opacity:1;fill-rule:nonzero;stroke:none"
         d="m 138.281,584.5 c 64.586,87.844 141.91,141.922 206.114,141.93 15.601,0 30.41,-3.18 44.078,-9.813 67.511,-32.801 87.816,-140.828 59.105,-266.992 2.985,2.797 6.039,5.523 9.238,8.117 14.02,11.363 29.637,20.762 46.286,27.727 2.586,1.082 5.273,1.883 7.906,2.851 19.722,127.524 -6.422,232.618 -77.031,266.918 -15.903,7.719 -33.118,11.418 -51.25,11.41 -78.879,-0.007 -174.856,-69.964 -252.321,-182.503 2.477,0.191 4.953,0.371 7.559,0.371 0.105,0 0.211,-0.016 0.316,-0.016" /><path
         id="path18"
         style="fill:#66a531;fill-opacity:1;fill-rule:nonzero;stroke:none"
         d="m 566.527,459.816 c -19.918,0 -39.832,-3.933 -58.207,-11.625 -13.172,-5.511 -25.531,-12.949 -36.625,-21.941 -44.336,-35.957 -63.257,-98.027 -37.179,-150.625 24.562,-49.543 78.547,-76.652 132.324,-78.711 2.258,-0.09 4.508,-0.129 6.765,-0.129 10.301,0 20.614,0.899 30.758,2.735 2.793,0.5 29.223,6.152 29.223,6.152 l -9.738,63.73 h -0.032 c -0.339,-0.097 -10.906,-1.66 -25.332,-1.66 -30.343,0 -77.66,6.906 -82.339,48.821 -2.668,23.894 7.023,48.851 26.625,62.781 11.585,8.242 25.523,12.746 39.64,13.875 0.422,0.008 0.863,0.011 1.301,0.011 14.187,0 39.375,-5.589 39.375,-5.589 0,0 3,18.785 4.375,28.199 1.562,10.719 5.09,33.539 5.09,33.539 -16.914,3.535 -34.731,8.152 -51.887,9.773 -4.695,0.446 -9.418,0.664 -14.137,0.664" /><path
         id="path20"
         style="fill:#66a531;fill-opacity:1;fill-rule:nonzero;stroke:none"
         d="m 409.883,520.418 c -13.727,-28.68 -45.281,-42.156 -70.488,-30.098 -25.211,12.063 -34.516,45.094 -20.79,73.778 13.723,28.683 45.282,42.156 70.493,30.093 25.203,-12.058 34.511,-45.089 20.785,-73.773" /><path
         id="path22"
         style="fill:#66a531;fill-opacity:1;fill-rule:nonzero;stroke:none"
         d="M 402.41,203.172 H 326.078 V 458.52 H 402.41 V 203.172" /><path
         id="path24"
         style="fill:#66a531;fill-opacity:1;fill-rule:nonzero;stroke:none"
         d="M 297.75,161.25 C 242.637,102.07 182.605,67.1289 131.039,67.1289 c -15.594,0 -30.402,3.1719 -44.0702,9.8125 C 26.6602,106.238 4.06641,195.566 20.3906,304.219 c -2.9258,1.719 -5.6523,3.64 -8.25,5.691 C -17.3281,168.379 7.01563,48.5039 83.3789,11.4141 99.2734,3.69141 116.488,0 134.625,0 208.398,0 297.113,61.2695 371.676,161.25 H 297.75" /></g></g></svg>