<?xml version="1.0" encoding="UTF-8" standalone="no"?>
<!-- Created with Inkscape (http://www.inkscape.org/) -->

<svg
   xmlns:dc="http://purl.org/dc/elements/1.1/"
   xmlns:cc="http://creativecommons.org/ns#"
   xmlns:rdf="http://www.w3.org/1999/02/22-rdf-syntax-ns#"
   xmlns:svg="http://www.w3.org/2000/svg"
   xmlns="http://www.w3.org/2000/svg"
   xmlns:sodipodi="http://sodipodi.sourceforge.net/DTD/sodipodi-0.dtd"
   xmlns:inkscape="http://www.inkscape.org/namespaces/inkscape"
   version="1.1"
   id="svg2"
   xml:space="preserve"
   width="322"
   height="180"
   viewBox="0 0 322 180"
   sodipodi:docname="logo-fe.svg"
   inkscape:version="0.92.4 (5da689c313, 2019-01-14)"><metadata
     id="metadata8"><rdf:RDF><cc:Work
         rdf:about=""><dc:format>image/svg+xml</dc:format><dc:type
           rdf:resource="http://purl.org/dc/dcmitype/StillImage" /><dc:title /></cc:Work></rdf:RDF></metadata><defs
     id="defs6"><clipPath
       clipPathUnits="userSpaceOnUse"
       id="clipPath72"><path
         d="M 0,181.41 H 657.813 V 0 H 0 Z"
         id="path70"
         inkscape:connector-curvature="0" /></clipPath></defs><sodipodi:namedview
     pagecolor="#ffffff"
     bordercolor="#666666"
     borderopacity="1"
     objecttolerance="10"
     gridtolerance="10"
     guidetolerance="10"
     inkscape:pageopacity="1"
     inkscape:pageshadow="2"
     inkscape:window-width="1680"
     inkscape:window-height="991"
     id="namedview4"
     showgrid="false"
     fit-margin-top="30"
     fit-margin-bottom="30"
     inkscape:zoom="1.5277898"
     inkscape:cx="-15.273674"
     inkscape:cy="107.75619"
     inkscape:window-x="0"
     inkscape:window-y="30"
     inkscape:window-maximized="1"
     inkscape:current-layer="g10"
     fit-margin-left="30"
     fit-margin-right="30" /><g
     id="g10"
     inkscape:groupmode="layer"
     inkscape:label="FE_Polska_Cyfrowa"
     transform="matrix(1.3333333,0,0,-1.3333333,-30.471865,210.468)"><g
       id="g264"
       transform="translate(90.7149,45.351)"><path
         d="M 0,0 -45.361,8.504 V 76.535 L 0,90.708 Z"
         style="fill:#164194;fill-opacity:1;fill-rule:nonzero;stroke:none"
         id="path266"
         inkscape:connector-curvature="0" /></g><g
       id="g268"
       transform="translate(45.3606,70.205)"><path
         d="m 0,0 v 17.663 c 2.284,-0.622 4.825,-0.913 6.5,0.098 3.664,2.185 9.213,8.875 9.213,8.875 0,0 -2.926,-7.215 -1.822,-9.865 1.166,-2.812 8.099,-2.963 8.099,-2.963 0,0 -7.837,-4.764 -11.484,-7.923 C 6.755,2.664 4.151,-9.178 4.151,-9.178 4.151,-9.178 2.332,-1.588 0,0"
         style="fill:#ffed00;fill-opacity:1;fill-rule:nonzero;stroke:none"
         id="path270"
         inkscape:connector-curvature="0" /></g><g
       id="g272"
       transform="translate(90.7149,101.3658)"><path
         d="m 0,0 c -1.569,-0.988 -3.109,-1.766 -4.266,-1.992 -3.645,-0.703 -7.546,3.484 -7.546,3.484 0,0 0.917,-6.122 -1.376,-9.893 -2.414,-3.974 -10.176,-8.951 -10.176,-8.951 0,0 8.58,1.66 10.248,-1.001 1.774,-2.854 2.011,-12.794 2.011,-12.794 0,0 4.372,11.934 8.338,13.56 0.772,0.328 1.737,0.632 2.767,0.925 z"
         style="fill:#e30613;fill-opacity:1;fill-rule:nonzero;stroke:none"
         id="path274"
         inkscape:connector-curvature="0" /></g><g
       id="g276"
       transform="translate(61.0741,96.8414)"><path
         d="m 0,0 c 0,0 4.384,6.869 4.119,9.314 -0.26,2.321 -4.807,3.158 -4.807,3.158 0,0 5.953,1.462 8.549,3.796 2.504,2.255 4.694,6.933 4.694,6.933 0,0 0.554,-3.871 2.781,-4.426 2.298,-0.578 8.437,1.901 8.437,1.901 0,0 -4.846,-4.586 -6.748,-7.087 -1.987,-2.608 0.804,-7.573 0.804,-7.573 0,0 -5.144,1.79 -8.021,1.252 C 6.975,6.73 0,0 0,0"
         style="fill:#ffffff;fill-opacity:1;fill-rule:nonzero;stroke:none"
         id="path278"
         inkscape:connector-curvature="0" /></g><g
       id="g280"
       transform="translate(113.3813,102.0447)"><path
         d="M 0,0 V 17.012 H 10.752 V 14.385 H 3.093 V 10.04 h 6.8 V 7.414 h -6.8 L 3.093,0 Z"
         style="fill:#1d1d1b;fill-opacity:1;fill-rule:nonzero;stroke:none"
         id="path282"
         inkscape:connector-curvature="0" /></g><g
       id="g284"
       transform="translate(136.6039,102.7073)"><path
         d="m 0,0 c -0.573,-0.147 -1.317,-0.299 -2.234,-0.454 -0.917,-0.156 -1.923,-0.233 -3.019,-0.233 -1.031,0 -1.895,0.147 -2.59,0.442 -0.696,0.294 -1.252,0.703 -1.669,1.227 -0.418,0.524 -0.717,1.15 -0.897,1.878 -0.18,0.728 -0.27,1.526 -0.27,2.393 v 7.193 h 2.971 V 5.72 c 0,-1.375 0.2,-2.357 0.601,-2.946 0.401,-0.589 1.101,-0.883 2.099,-0.883 0.36,0 0.74,0.016 1.142,0.048 0.401,0.033 0.699,0.074 0.896,0.123 V 12.446 H 0 Z"
         style="fill:#1d1d1b;fill-opacity:1;fill-rule:nonzero;stroke:none"
         id="path286"
         inkscape:connector-curvature="0" /></g><g
       id="g288"
       transform="translate(140.2367,114.4661)"><path
         d="m 0,0 c 0.573,0.163 1.317,0.319 2.234,0.466 0.916,0.148 1.931,0.221 3.044,0.221 1.047,0 1.923,-0.143 2.626,-0.429 0.704,-0.287 1.265,-0.688 1.682,-1.203 0.417,-0.515 0.712,-1.138 0.884,-1.866 0.172,-0.728 0.258,-1.526 0.258,-2.393 v -7.217 H 7.757 v 6.75 c 0,0.688 -0.045,1.273 -0.135,1.755 C 7.532,-3.433 7.385,-3.04 7.18,-2.737 6.976,-2.435 6.697,-2.214 6.346,-2.074 5.994,-1.936 5.564,-1.866 5.057,-1.866 4.68,-1.866 4.288,-1.89 3.878,-1.939 3.469,-1.988 3.167,-2.029 2.97,-2.062 V -12.421 H 0 Z"
         style="fill:#1d1d1b;fill-opacity:1;fill-rule:nonzero;stroke:none"
         id="path290"
         inkscape:connector-curvature="0" /></g><g
       id="g292"
       transform="translate(156.7817,108.7952)"><path
         d="m 0,0 c 0,-1.309 0.311,-2.336 0.934,-3.081 0.621,-0.744 1.48,-1.116 2.576,-1.116 0.474,0 0.881,0.02 1.217,0.061 0.334,0.04 0.609,0.086 0.822,0.135 V 3.363 C 5.285,3.543 4.937,3.711 4.504,3.867 4.07,4.022 3.609,4.1 3.117,4.1 2.037,4.1 1.248,3.731 0.748,2.995 0.25,2.259 0,1.26 0,0 M 8.518,-6.063 C 7.93,-6.244 7.187,-6.407 6.297,-6.554 5.404,-6.701 4.469,-6.775 3.486,-6.775 c -1.015,0 -1.924,0.155 -2.724,0.466 -0.803,0.311 -1.487,0.757 -2.051,1.338 -0.565,0.581 -0.998,1.285 -1.301,2.111 -0.303,0.827 -0.454,1.756 -0.454,2.787 0,1.014 0.127,1.935 0.38,2.761 0.254,0.827 0.626,1.535 1.117,2.124 0.492,0.589 1.088,1.043 1.793,1.362 0.703,0.319 1.514,0.479 2.43,0.479 0.621,0 1.17,-0.074 1.644,-0.221 C 4.795,6.285 5.205,6.121 5.549,5.941 v 3.83 l 2.969,0.49 z"
         style="fill:#1d1d1b;fill-opacity:1;fill-rule:nonzero;stroke:none"
         id="path294"
         inkscape:connector-curvature="0" /></g><g
       id="g296"
       transform="translate(179.4633,102.7073)"><path
         d="m 0,0 c -0.572,-0.147 -1.317,-0.299 -2.233,-0.454 -0.917,-0.156 -1.923,-0.233 -3.02,-0.233 -1.031,0 -1.894,0.147 -2.59,0.442 -0.695,0.294 -1.252,0.703 -1.669,1.227 -0.418,0.524 -0.717,1.15 -0.896,1.878 -0.18,0.728 -0.27,1.526 -0.27,2.393 v 7.193 h 2.97 V 5.72 c 0,-1.375 0.2,-2.357 0.602,-2.946 0.401,-0.589 1.1,-0.883 2.098,-0.883 0.361,0 0.74,0.016 1.142,0.048 0.401,0.033 0.7,0.074 0.896,0.123 V 12.446 H 0 Z"
         style="fill:#1d1d1b;fill-opacity:1;fill-rule:nonzero;stroke:none"
         id="path298"
         inkscape:connector-curvature="0" /></g><g
       id="g300"
       transform="translate(186.3129,104.4749)"><path
         d="m 0,0 c 0.785,0 1.357,0.094 1.718,0.282 0.36,0.188 0.54,0.511 0.54,0.97 0,0.425 -0.193,0.777 -0.577,1.056 C 1.296,2.585 0.662,2.888 -0.222,3.216 -0.762,3.412 -1.257,3.621 -1.706,3.842 -2.157,4.063 -2.545,4.32 -2.873,4.615 -3.2,4.91 -3.458,5.266 -3.646,5.683 -3.834,6.1 -3.928,6.611 -3.928,7.217 c 0,1.179 0.433,2.107 1.301,2.786 0.867,0.679 2.045,1.019 3.535,1.019 0.752,0 1.473,-0.07 2.16,-0.209 0.688,-0.139 1.203,-0.274 1.546,-0.405 L 4.074,8.003 C 3.747,8.15 3.33,8.285 2.822,8.408 2.315,8.531 1.726,8.592 1.055,8.592 0.449,8.592 -0.041,8.489 -0.418,8.285 -0.794,8.08 -0.982,7.765 -0.982,7.34 c 0,-0.213 0.037,-0.401 0.11,-0.565 0.074,-0.164 0.2,-0.315 0.381,-0.454 C -0.312,6.182 -0.074,6.043 0.221,5.904 0.515,5.765 0.875,5.622 1.301,5.474 2.004,5.212 2.602,4.955 3.093,4.701 3.584,4.447 3.988,4.161 4.308,3.842 4.627,3.523 4.86,3.158 5.008,2.75 5.154,2.34 5.229,1.849 5.229,1.276 5.229,0.049 4.774,-0.88 3.866,-1.51 2.958,-2.14 1.66,-2.455 -0.025,-2.455 c -1.129,0 -2.038,0.094 -2.725,0.283 -0.688,0.188 -1.17,0.339 -1.448,0.454 l 0.515,2.479 C -3.241,0.581 -2.713,0.409 -2.1,0.246 -1.485,0.082 -0.786,0 0,0"
         style="fill:#1d1d1b;fill-opacity:1;fill-rule:nonzero;stroke:none"
         id="path302"
         inkscape:connector-curvature="0" /></g><g
       id="g304"
       transform="translate(203.1528,112.7967)"><path
         d="M 0,0 C -0.328,-0.344 -0.758,-0.827 -1.289,-1.448 -1.821,-2.07 -2.39,-2.762 -2.995,-3.522 -3.602,-4.284 -4.211,-5.078 -4.824,-5.904 -5.438,-6.73 -5.99,-7.52 -6.481,-8.272 h 6.628 v -2.48 h -10.211 v 1.841 c 0.359,0.655 0.809,1.367 1.349,2.136 0.54,0.769 1.097,1.542 1.669,2.319 0.573,0.778 1.142,1.518 1.706,2.222 0.566,0.704 1.069,1.317 1.51,1.841 H -9.746 V 2.086 H 0 Z"
         style="fill:#1d1d1b;fill-opacity:1;fill-rule:nonzero;stroke:none"
         id="path306"
         inkscape:connector-curvature="0" /></g><g
       id="g308"
       transform="translate(213.3891,110.0228)"><path
         d="m 0,0 c 0,0.409 -0.058,0.798 -0.172,1.166 -0.115,0.368 -0.282,0.688 -0.504,0.958 -0.22,0.27 -0.49,0.482 -0.809,0.638 -0.32,0.155 -0.7,0.233 -1.142,0.233 -0.458,0 -0.859,-0.086 -1.203,-0.258 C -4.174,2.565 -4.464,2.34 -4.701,2.062 -4.938,1.784 -5.123,1.464 -5.254,1.105 -5.385,0.745 -5.475,0.376 -5.523,0 Z m -8.616,-1.326 c 0,1.13 0.167,2.119 0.503,2.971 0.335,0.851 0.781,1.559 1.338,2.123 0.555,0.565 1.194,0.99 1.915,1.277 0.719,0.286 1.456,0.429 2.209,0.429 1.767,0 3.145,-0.548 4.136,-1.644 C 2.475,2.733 2.97,1.096 2.97,-1.08 2.97,-1.244 2.966,-1.428 2.958,-1.632 2.949,-1.837 2.938,-2.021 2.921,-2.185 h -8.469 c 0.081,-1.031 0.445,-1.829 1.092,-2.393 0.646,-0.565 1.584,-0.847 2.811,-0.847 0.72,0 1.378,0.065 1.976,0.196 0.598,0.131 1.068,0.271 1.411,0.417 l 0.394,-2.43 C 1.972,-7.324 1.746,-7.41 1.46,-7.5 1.174,-7.589 0.847,-7.671 0.479,-7.745 0.11,-7.818 -0.287,-7.88 -0.712,-7.929 c -0.426,-0.049 -0.859,-0.073 -1.302,-0.073 -1.129,0 -2.11,0.167 -2.945,0.502 -0.835,0.336 -1.521,0.802 -2.062,1.4 -0.541,0.597 -0.941,1.301 -1.203,2.111 -0.261,0.81 -0.392,1.697 -0.392,2.663"
         style="fill:#1d1d1b;fill-opacity:1;fill-rule:nonzero;stroke:none"
         id="path310"
         inkscape:connector-curvature="0" /></g><g
       id="g312"
       transform="translate(113.3813,79.3675)"><path
         d="M 0,0 V 17.012 H 10.924 V 14.385 H 3.093 v -4.197 h 6.971 V 7.61 H 3.093 V 2.626 h 8.42 V 0 Z"
         style="fill:#1d1d1b;fill-opacity:1;fill-rule:nonzero;stroke:none"
         id="path314"
         inkscape:connector-curvature="0" /></g><g
       id="g316"
       transform="translate(137.5854,80.0301)"><path
         d="m 0,0 c -0.573,-0.147 -1.317,-0.299 -2.234,-0.454 -0.917,-0.156 -1.923,-0.233 -3.019,-0.233 -1.031,0 -1.895,0.147 -2.59,0.442 -0.696,0.294 -1.252,0.703 -1.669,1.227 -0.418,0.524 -0.717,1.15 -0.897,1.878 -0.18,0.728 -0.27,1.526 -0.27,2.393 v 7.193 h 2.971 V 5.72 c 0,-1.375 0.2,-2.357 0.601,-2.946 0.401,-0.589 1.101,-0.883 2.099,-0.883 0.36,0 0.74,0.016 1.142,0.048 0.401,0.033 0.699,0.074 0.896,0.123 V 12.446 H 0 Z"
         style="fill:#1d1d1b;fill-opacity:1;fill-rule:nonzero;stroke:none"
         id="path318"
         inkscape:connector-curvature="0" /></g><g
       id="g320"
       transform="translate(148.5336,89.5306)"><path
         d="m 0,0 c -0.246,0.082 -0.585,0.167 -1.019,0.257 -0.434,0.09 -0.937,0.136 -1.509,0.136 -0.328,0 -0.676,-0.034 -1.044,-0.099 C -3.94,0.229 -4.198,0.172 -4.345,0.123 v -10.286 h -2.97 V 2.062 c 0.572,0.212 1.289,0.413 2.148,0.601 0.859,0.188 1.812,0.283 2.859,0.283 0.197,0 0.426,-0.013 0.688,-0.037 0.262,-0.025 0.523,-0.058 0.786,-0.098 0.261,-0.041 0.515,-0.091 0.76,-0.148 0.246,-0.057 0.442,-0.11 0.59,-0.159 z"
         style="fill:#1d1d1b;fill-opacity:1;fill-rule:nonzero;stroke:none"
         id="path322"
         inkscape:connector-curvature="0" /></g><g
       id="g324"
       transform="translate(159.5307,86.118)"><path
         d="M 0,0 C 0,1.277 -0.273,2.287 -0.822,3.032 -1.37,3.776 -2.135,4.149 -3.117,4.149 -4.099,4.149 -4.864,3.776 -5.413,3.032 -5.961,2.287 -6.235,1.277 -6.235,0 c 0,-1.293 0.274,-2.316 0.822,-3.068 0.549,-0.753 1.314,-1.129 2.296,-1.129 0.982,0 1.747,0.376 2.295,1.129 C -0.273,-2.316 0,-1.293 0,0 M 3.044,0 C 3.044,-1.015 2.897,-1.939 2.603,-2.774 2.308,-3.608 1.891,-4.32 1.351,-4.909 0.811,-5.499 0.16,-5.957 -0.601,-6.284 c -0.761,-0.328 -1.6,-0.491 -2.516,-0.491 -0.917,0 -1.752,0.163 -2.504,0.491 -0.753,0.327 -1.4,0.785 -1.94,1.375 -0.54,0.589 -0.961,1.301 -1.264,2.135 -0.302,0.835 -0.454,1.759 -0.454,2.774 0,1.015 0.152,1.935 0.454,2.762 0.303,0.826 0.728,1.534 1.277,2.123 0.548,0.59 1.198,1.044 1.951,1.363 0.753,0.319 1.579,0.479 2.48,0.479 0.899,0 1.73,-0.16 2.491,-0.479 C 0.136,5.929 0.786,5.475 1.326,4.885 1.866,4.296 2.287,3.588 2.59,2.762 2.893,1.935 3.044,1.015 3.044,0"
         style="fill:#1d1d1b;fill-opacity:1;fill-rule:nonzero;stroke:none"
         id="path326"
         inkscape:connector-curvature="0" /></g><g
       id="g328"
       transform="translate(174.0141,85.7254)"><path
         d="M 0,0 C 0,1.326 -0.299,2.356 -0.896,3.093 -1.493,3.83 -2.455,4.198 -3.78,4.198 -4.059,4.198 -4.349,4.186 -4.651,4.161 -4.955,4.136 -5.253,4.083 -5.548,4.001 v -7.339 c 0.262,-0.181 0.61,-0.349 1.043,-0.504 0.434,-0.156 0.897,-0.233 1.388,-0.233 1.08,0 1.869,0.368 2.368,1.105 C -0.25,-2.234 0,-1.244 0,0 m 3.044,0.049 c 0,-0.982 -0.127,-1.882 -0.38,-2.7 C 2.41,-3.47 2.046,-4.173 1.571,-4.762 1.097,-5.352 0.503,-5.81 -0.209,-6.137 -0.92,-6.464 -1.727,-6.628 -2.627,-6.628 c -0.605,0 -1.162,0.074 -1.669,0.221 -0.507,0.147 -0.925,0.311 -1.252,0.491 v -4.983 h -2.97 V 6.063 c 0.605,0.164 1.35,0.319 2.234,0.467 0.884,0.147 1.816,0.221 2.799,0.221 1.014,0 1.923,-0.156 2.724,-0.467 C 0.041,5.973 0.725,5.527 1.289,4.946 1.854,4.365 2.287,3.662 2.59,2.835 2.893,2.009 3.044,1.08 3.044,0.049"
         style="fill:#1d1d1b;fill-opacity:1;fill-rule:nonzero;stroke:none"
         id="path330"
         inkscape:connector-curvature="0" /></g><g
       id="g332"
       transform="translate(187.8842,87.3455)"><path
         d="m 0,0 c 0,0.409 -0.058,0.798 -0.172,1.166 -0.115,0.368 -0.282,0.688 -0.504,0.958 -0.22,0.27 -0.49,0.482 -0.809,0.638 -0.32,0.155 -0.7,0.233 -1.142,0.233 -0.458,0 -0.859,-0.086 -1.203,-0.258 C -4.174,2.565 -4.464,2.34 -4.701,2.062 -4.938,1.784 -5.123,1.464 -5.254,1.105 -5.385,0.745 -5.475,0.376 -5.523,0 Z m -8.616,-1.326 c 0,1.13 0.167,2.119 0.503,2.971 0.335,0.851 0.781,1.559 1.338,2.123 0.555,0.565 1.194,0.99 1.915,1.277 0.719,0.286 1.456,0.429 2.209,0.429 1.767,0 3.145,-0.548 4.136,-1.644 C 2.475,2.733 2.97,1.096 2.97,-1.08 2.97,-1.244 2.966,-1.428 2.958,-1.632 2.949,-1.837 2.938,-2.021 2.921,-2.185 h -8.469 c 0.081,-1.031 0.445,-1.829 1.092,-2.393 0.646,-0.565 1.584,-0.847 2.811,-0.847 0.72,0 1.378,0.065 1.976,0.196 0.598,0.131 1.068,0.271 1.411,0.417 l 0.394,-2.43 C 1.972,-7.324 1.746,-7.41 1.46,-7.5 1.174,-7.589 0.847,-7.671 0.479,-7.745 0.11,-7.818 -0.287,-7.88 -0.712,-7.929 c -0.426,-0.049 -0.859,-0.073 -1.302,-0.073 -1.129,0 -2.11,0.167 -2.945,0.502 -0.835,0.336 -1.521,0.802 -2.062,1.4 -0.541,0.597 -0.941,1.301 -1.203,2.111 -0.261,0.81 -0.392,1.697 -0.392,2.663"
         style="fill:#1d1d1b;fill-opacity:1;fill-rule:nonzero;stroke:none"
         id="path334"
         inkscape:connector-curvature="0" /></g><g
       id="g336"
       transform="translate(197.1381,95.9617)"><path
         d="m 0,0 c 0,-0.556 -0.181,-0.998 -0.54,-1.325 -0.36,-0.328 -0.785,-0.491 -1.276,-0.491 -0.508,0 -0.942,0.163 -1.301,0.491 -0.361,0.327 -0.54,0.769 -0.54,1.325 0,0.573 0.179,1.023 0.54,1.351 0.359,0.327 0.793,0.49 1.301,0.49 0.491,0 0.916,-0.163 1.276,-0.49 C -0.181,1.023 0,0.573 0,0 m -4.935,-21.16 c -0.212,0 -0.51,0.02 -0.895,0.061 -0.385,0.041 -0.725,0.119 -1.019,0.233 l 0.393,2.43 c 0.36,-0.114 0.794,-0.171 1.301,-0.171 0.687,0 1.17,0.2 1.448,0.601 0.278,0.402 0.418,1.003 0.418,1.804 v 12.446 h 2.97 V -16.25 c 0,-1.67 -0.397,-2.905 -1.191,-3.708 -0.794,-0.801 -1.935,-1.202 -3.425,-1.202"
         style="fill:#1d1d1b;fill-opacity:1;fill-rule:nonzero;stroke:none"
         id="path338"
         inkscape:connector-curvature="0" /></g><g
       id="g340"
       transform="translate(203.6684,81.7977)"><path
         d="m 0,0 c 0.785,0 1.357,0.094 1.718,0.282 0.36,0.188 0.54,0.511 0.54,0.97 0,0.425 -0.193,0.777 -0.577,1.056 C 1.296,2.585 0.662,2.888 -0.222,3.216 -0.762,3.412 -1.257,3.621 -1.706,3.842 -2.157,4.063 -2.545,4.32 -2.873,4.615 -3.2,4.91 -3.458,5.266 -3.646,5.683 -3.834,6.1 -3.928,6.611 -3.928,7.217 c 0,1.179 0.433,2.107 1.301,2.786 0.867,0.679 2.045,1.019 3.535,1.019 0.752,0 1.473,-0.07 2.16,-0.209 0.688,-0.139 1.203,-0.274 1.546,-0.405 L 4.074,8.003 C 3.747,8.15 3.33,8.285 2.822,8.408 2.315,8.531 1.726,8.592 1.055,8.592 0.449,8.592 -0.041,8.489 -0.418,8.285 -0.794,8.08 -0.982,7.765 -0.982,7.34 c 0,-0.213 0.037,-0.401 0.11,-0.565 0.074,-0.164 0.2,-0.315 0.381,-0.454 C -0.312,6.182 -0.074,6.043 0.221,5.904 0.515,5.765 0.875,5.622 1.301,5.474 2.004,5.212 2.602,4.955 3.093,4.701 3.584,4.447 3.988,4.161 4.308,3.842 4.627,3.523 4.86,3.158 5.008,2.75 5.154,2.34 5.229,1.849 5.229,1.276 5.229,0.049 4.774,-0.88 3.866,-1.51 2.958,-2.14 1.66,-2.455 -0.025,-2.455 c -1.129,0 -2.038,0.094 -2.725,0.283 -0.688,0.188 -1.17,0.339 -1.448,0.454 l 0.515,2.479 C -3.241,0.581 -2.713,0.409 -2.1,0.246 -1.485,0.082 -0.786,0 0,0"
         style="fill:#1d1d1b;fill-opacity:1;fill-rule:nonzero;stroke:none"
         id="path342"
         inkscape:connector-curvature="0" /></g><g
       id="g344"
       transform="translate(214.4936,87.1985)"><path
         d="m 0,0 c 0.376,0.393 0.777,0.813 1.203,1.264 0.425,0.45 0.843,0.9 1.252,1.35 0.409,0.45 0.798,0.884 1.166,1.301 0.368,0.418 0.683,0.781 0.945,1.092 h 3.51 C 7.258,4.091 6.395,3.142 5.486,2.16 4.578,1.178 3.666,0.221 2.75,-0.712 c 0.49,-0.41 1.006,-0.905 1.546,-1.485 0.54,-0.581 1.063,-1.199 1.571,-1.854 0.507,-0.655 0.982,-1.309 1.424,-1.964 0.441,-0.654 0.81,-1.26 1.105,-1.816 H 4.959 C 4.664,-7.324 4.324,-6.792 3.94,-6.235 3.556,-5.679 3.143,-5.139 2.7,-4.615 2.259,-4.092 1.809,-3.597 1.351,-3.13 0.892,-2.664 0.442,-2.267 0,-1.939 V -7.831 H -2.97 V 8.69 L 0,9.181 Z"
         style="fill:#1d1d1b;fill-opacity:1;fill-rule:nonzero;stroke:none"
         id="path346"
         inkscape:connector-curvature="0" /></g><path
       d="m 227.896,79.367 h -2.97 v 12.838 h 2.97 z m 0.319,16.595 c 0,-0.556 -0.18,-0.998 -0.54,-1.325 -0.36,-0.328 -0.785,-0.492 -1.276,-0.492 -0.508,0 -0.942,0.164 -1.301,0.492 -0.36,0.327 -0.54,0.769 -0.54,1.325 0,0.572 0.18,1.023 0.54,1.35 0.359,0.327 0.793,0.491 1.301,0.491 0.491,0 0.916,-0.164 1.276,-0.491 0.36,-0.327 0.54,-0.778 0.54,-1.35"
       style="fill:#1d1d1b;fill-opacity:1;fill-rule:nonzero;stroke:none"
       id="path348"
       inkscape:connector-curvature="0" /><g
       id="g350"
       transform="translate(239.434,87.3455)"><path
         d="m 0,0 c 0,0.409 -0.058,0.798 -0.172,1.166 -0.115,0.368 -0.282,0.688 -0.504,0.958 -0.22,0.27 -0.49,0.482 -0.809,0.638 -0.32,0.155 -0.7,0.233 -1.142,0.233 -0.458,0 -0.859,-0.086 -1.203,-0.258 C -4.174,2.565 -4.464,2.34 -4.701,2.062 -4.938,1.784 -5.123,1.464 -5.254,1.105 -5.385,0.745 -5.475,0.376 -5.523,0 Z m -8.616,-1.326 c 0,1.13 0.167,2.119 0.503,2.971 0.335,0.851 0.781,1.559 1.338,2.123 0.555,0.565 1.194,0.99 1.915,1.277 0.719,0.286 1.456,0.429 2.209,0.429 1.767,0 3.145,-0.548 4.136,-1.644 C 2.475,2.733 2.97,1.096 2.97,-1.08 2.97,-1.244 2.966,-1.428 2.958,-1.632 2.949,-1.837 2.938,-2.021 2.921,-2.185 h -8.469 c 0.081,-1.031 0.445,-1.829 1.092,-2.393 0.646,-0.565 1.584,-0.847 2.811,-0.847 0.72,0 1.378,0.065 1.976,0.196 0.598,0.131 1.068,0.271 1.411,0.417 l 0.394,-2.43 C 1.972,-7.324 1.746,-7.41 1.46,-7.5 1.174,-7.589 0.847,-7.671 0.479,-7.745 0.11,-7.818 -0.287,-7.88 -0.712,-7.929 c -0.426,-0.049 -0.859,-0.073 -1.302,-0.073 -1.129,0 -2.11,0.167 -2.945,0.502 -0.835,0.336 -1.521,0.802 -2.062,1.4 -0.541,0.597 -0.941,1.301 -1.203,2.111 -0.261,0.81 -0.392,1.697 -0.392,2.663"
         style="fill:#1d1d1b;fill-opacity:1;fill-rule:nonzero;stroke:none"
         id="path352"
         inkscape:connector-curvature="0" /></g><g
       id="g354"
       transform="translate(116.5107,66.6375)"><path
         d="m 0,0 c -0.669,0 -1.183,-0.016 -1.539,-0.048 v -4.407 h 1.183 c 0.54,0 1.026,0.035 1.458,0.105 0.432,0.071 0.796,0.189 1.093,0.357 0.297,0.167 0.527,0.397 0.689,0.688 0.162,0.292 0.243,0.664 0.243,1.118 0,0.432 -0.084,0.789 -0.252,1.069 -0.167,0.281 -0.394,0.505 -0.68,0.673 C 1.909,-0.278 1.577,-0.162 1.199,-0.097 0.821,-0.032 0.421,0 0,0 m -0.129,1.377 c 1.576,0 2.789,-0.299 3.636,-0.899 0.848,-0.6 1.272,-1.493 1.272,-2.681 0,-0.648 -0.116,-1.202 -0.348,-1.661 C 4.199,-4.323 3.864,-4.695 3.426,-4.981 2.989,-5.268 2.457,-5.476 1.831,-5.605 1.204,-5.735 0.497,-5.799 -0.292,-5.799 H -1.539 V -9.963 H -3.11 V 1.102 c 0.443,0.107 0.937,0.18 1.482,0.218 0.545,0.038 1.045,0.057 1.499,0.057"
         style="fill:#1d1d1b;fill-opacity:1;fill-rule:nonzero;stroke:none"
         id="path356"
         inkscape:connector-curvature="0" /></g><g
       id="g358"
       transform="translate(128.5956,61.0809)"><path
         d="M 0,0 C 0,0.95 -0.213,1.704 -0.64,2.26 -1.066,2.816 -1.647,3.094 -2.381,3.094 -3.116,3.094 -3.696,2.816 -4.123,2.26 -4.549,1.704 -4.763,0.95 -4.763,0 c 0,-0.95 0.214,-1.704 0.64,-2.26 0.427,-0.556 1.007,-0.834 1.742,-0.834 0.734,0 1.315,0.278 1.741,0.834 C -0.213,-1.704 0,-0.95 0,0 m 1.572,0 c 0,-0.669 -0.097,-1.274 -0.292,-1.814 -0.195,-0.54 -0.467,-1.005 -0.818,-1.394 -0.351,-0.388 -0.77,-0.688 -1.255,-0.898 -0.487,-0.211 -1.016,-0.316 -1.588,-0.316 -0.573,0 -1.102,0.105 -1.588,0.316 -0.486,0.21 -0.905,0.51 -1.255,0.898 -0.351,0.389 -0.624,0.854 -0.818,1.394 -0.195,0.54 -0.292,1.145 -0.292,1.814 0,0.659 0.097,1.261 0.292,1.807 0.194,0.545 0.467,1.012 0.818,1.401 0.35,0.389 0.769,0.688 1.255,0.899 0.486,0.21 1.015,0.316 1.588,0.316 0.572,0 1.101,-0.106 1.588,-0.316 C -0.308,3.896 0.111,3.597 0.462,3.208 0.813,2.819 1.085,2.352 1.28,1.807 1.475,1.261 1.572,0.659 1.572,0"
         style="fill:#1d1d1b;fill-opacity:1;fill-rule:nonzero;stroke:none"
         id="path360"
         inkscape:connector-curvature="0" /></g><g
       id="g362"
       transform="translate(134.7358,56.6746)"><path
         d="M 0,0 C -0.929,0.021 -1.587,0.221 -1.977,0.6 -2.365,0.978 -2.56,1.566 -2.56,2.365 v 10.109 l 1.507,0.259 V 2.608 c 0,-0.248 0.021,-0.453 0.065,-0.615 0.043,-0.162 0.113,-0.292 0.21,-0.389 0.097,-0.097 0.227,-0.17 0.389,-0.219 0.162,-0.049 0.362,-0.089 0.599,-0.121 z"
         style="fill:#1d1d1b;fill-opacity:1;fill-rule:nonzero;stroke:none"
         id="path364"
         inkscape:connector-curvature="0" /></g><g
       id="g366"
       transform="translate(138.5102,57.9544)"><path
         d="M 0,0 C 0.615,0 1.072,0.081 1.369,0.243 1.666,0.405 1.814,0.664 1.814,1.021 1.814,1.388 1.668,1.679 1.377,1.896 1.085,2.111 0.604,2.354 -0.065,2.625 -0.389,2.754 -0.7,2.886 -0.997,3.021 -1.293,3.156 -1.55,3.315 -1.766,3.499 c -0.216,0.184 -0.389,0.405 -0.518,0.665 -0.13,0.259 -0.195,0.577 -0.195,0.955 0,0.745 0.276,1.337 0.827,1.774 0.55,0.438 1.301,0.656 2.251,0.656 0.238,0 0.475,-0.013 0.713,-0.04 C 1.549,7.481 1.771,7.449 1.976,7.412 2.181,7.374 2.362,7.333 2.519,7.29 2.675,7.247 2.797,7.209 2.883,7.177 L 2.608,5.88 C 2.446,5.967 2.192,6.056 1.847,6.148 1.501,6.24 1.085,6.286 0.599,6.286 c -0.421,0 -0.788,-0.084 -1.101,-0.251 -0.314,-0.168 -0.47,-0.43 -0.47,-0.786 0,-0.184 0.035,-0.346 0.105,-0.486 0.07,-0.14 0.179,-0.267 0.324,-0.381 C -0.397,4.269 -0.216,4.164 0,4.066 0.216,3.969 0.475,3.866 0.777,3.758 1.177,3.607 1.533,3.458 1.847,3.313 2.16,3.167 2.427,2.997 2.648,2.803 2.87,2.608 3.04,2.374 3.159,2.098 3.277,1.823 3.337,1.485 3.337,1.085 3.337,0.308 3.048,-0.281 2.47,-0.68 1.893,-1.08 1.069,-1.28 0,-1.28 c -0.745,0 -1.329,0.062 -1.75,0.187 -0.421,0.124 -0.707,0.218 -0.858,0.283 l 0.275,1.296 C -2.16,0.421 -1.885,0.324 -1.507,0.194 -1.129,0.065 -0.626,0 0,0"
         style="fill:#1d1d1b;fill-opacity:1;fill-rule:nonzero;stroke:none"
         id="path368"
         inkscape:connector-curvature="0" /></g><g
       id="g370"
       transform="translate(146.7397,61.3079)"><path
         d="M 0,0 C 0.324,-0.249 0.667,-0.557 1.028,-0.923 1.39,-1.291 1.747,-1.687 2.098,-2.114 2.449,-2.541 2.781,-2.973 3.094,-3.41 3.407,-3.848 3.672,-4.255 3.888,-4.633 H 2.122 c -0.227,0.378 -0.489,0.764 -0.786,1.158 -0.297,0.394 -0.607,0.772 -0.931,1.134 -0.324,0.362 -0.654,0.694 -0.988,0.996 -0.335,0.303 -0.654,0.556 -0.956,0.762 v -4.05 H -3.046 V 7.679 l 1.507,0.259 V 0.259 c 0.259,0.259 0.545,0.545 0.858,0.859 0.313,0.313 0.621,0.632 0.924,0.956 0.302,0.323 0.589,0.634 0.859,0.931 0.269,0.297 0.502,0.559 0.696,0.786 H 3.564 C 3.315,3.521 3.045,3.224 2.754,2.9 2.462,2.576 2.16,2.249 1.847,1.919 1.533,1.59 1.217,1.261 0.899,0.932 0.58,0.602 0.281,0.292 0,0"
         style="fill:#1d1d1b;fill-opacity:1;fill-rule:nonzero;stroke:none"
         id="path372"
         inkscape:connector-curvature="0" /></g><g
       id="g374"
       transform="translate(154.9203,57.9222)"><path
         d="M 0,0 C 0.356,0 0.672,0.008 0.948,0.024 1.223,0.041 1.453,0.07 1.636,0.113 V 2.624 C 1.529,2.678 1.353,2.724 1.11,2.762 0.867,2.8 0.573,2.819 0.227,2.819 0,2.819 -0.24,2.802 -0.494,2.77 -0.748,2.738 -0.98,2.67 -1.19,2.567 -1.401,2.465 -1.577,2.325 -1.717,2.146 -1.857,1.968 -1.928,1.733 -1.928,1.441 c 0,-0.54 0.173,-0.915 0.519,-1.125 C -1.063,0.105 -0.594,0 0,0 M -0.129,7.549 C 0.476,7.549 0.986,7.471 1.402,7.314 1.818,7.157 2.152,6.936 2.406,6.65 2.66,6.364 2.84,6.023 2.949,5.629 3.056,5.235 3.111,4.8 3.111,4.325 V -0.94 C 2.981,-0.961 2.8,-0.991 2.568,-1.029 2.335,-1.067 2.074,-1.102 1.783,-1.134 1.491,-1.167 1.175,-1.196 0.834,-1.223 0.494,-1.25 0.157,-1.264 -0.178,-1.264 c -0.475,0 -0.913,0.049 -1.312,0.146 -0.4,0.097 -0.745,0.251 -1.037,0.462 -0.291,0.21 -0.518,0.488 -0.681,0.834 -0.161,0.345 -0.242,0.761 -0.242,1.247 0,0.465 0.094,0.865 0.283,1.199 0.189,0.335 0.446,0.605 0.77,0.81 0.324,0.205 0.702,0.357 1.134,0.454 0.431,0.097 0.885,0.146 1.361,0.146 0.151,0 0.307,-0.009 0.469,-0.025 C 0.729,3.993 0.883,3.971 1.029,3.944 1.175,3.917 1.302,3.893 1.41,3.872 1.517,3.85 1.593,3.833 1.636,3.823 v 0.421 c 0,0.249 -0.027,0.494 -0.08,0.737 C 1.501,5.224 1.404,5.44 1.263,5.629 1.124,5.818 0.931,5.97 0.689,6.083 0.446,6.196 0.13,6.253 -0.259,6.253 -0.756,6.253 -1.19,6.218 -1.563,6.148 -1.936,6.077 -2.214,6.004 -2.397,5.929 l -0.179,1.247 c 0.195,0.087 0.519,0.171 0.972,0.252 0.454,0.08 0.945,0.121 1.475,0.121"
         style="fill:#1d1d1b;fill-opacity:1;fill-rule:nonzero;stroke:none"
         id="path376"
         inkscape:connector-curvature="0" /></g><g
       id="g378"
       transform="translate(169.0302,56.6585)"><path
         d="M 0,0 C -0.788,0 -1.507,0.129 -2.154,0.389 -2.803,0.648 -3.358,1.026 -3.823,1.523 -4.287,2.02 -4.646,2.632 -4.9,3.361 -5.154,4.09 -5.281,4.925 -5.281,5.864 c 0,0.94 0.143,1.774 0.429,2.503 0.287,0.729 0.672,1.342 1.159,1.839 0.486,0.497 1.052,0.875 1.701,1.134 0.647,0.259 1.339,0.389 2.073,0.389 0.464,0 0.883,-0.033 1.256,-0.098 0.372,-0.064 0.696,-0.14 0.972,-0.226 0.275,-0.087 0.499,-0.173 0.671,-0.259 0.173,-0.087 0.292,-0.152 0.357,-0.195 L 2.884,9.655 C 2.786,9.72 2.646,9.79 2.463,9.866 2.278,9.941 2.071,10.017 1.839,10.092 1.606,10.168 1.353,10.23 1.077,10.279 0.802,10.328 0.523,10.352 0.243,10.352 -0.351,10.352 -0.886,10.249 -1.36,10.044 -1.836,9.839 -2.241,9.542 -2.576,9.153 -2.91,8.764 -3.167,8.292 -3.345,7.735 -3.523,7.179 -3.612,6.555 -3.612,5.864 c 0,-0.67 0.078,-1.28 0.234,-1.83 0.157,-0.551 0.392,-1.024 0.705,-1.418 0.314,-0.394 0.705,-0.699 1.175,-0.915 0.47,-0.216 1.018,-0.324 1.644,-0.324 0.723,0 1.323,0.075 1.798,0.227 0.475,0.151 0.831,0.286 1.07,0.405 L 3.418,0.713 C 3.343,0.659 3.208,0.591 3.014,0.51 2.819,0.429 2.576,0.351 2.284,0.275 1.993,0.2 1.652,0.135 1.264,0.081 0.875,0.027 0.454,0 0,0"
         style="fill:#1d1d1b;fill-opacity:1;fill-rule:nonzero;stroke:none"
         id="path380"
         inkscape:connector-curvature="0" /></g><g
       id="g382"
       transform="translate(172.8212,55.1033)"><path
         d="m 0,0 c 0.119,-0.054 0.272,-0.105 0.462,-0.154 0.188,-0.049 0.375,-0.073 0.559,-0.073 0.593,0 1.058,0.132 1.393,0.397 C 2.749,0.435 3.051,0.864 3.321,1.458 2.641,2.754 2.006,4.128 1.418,5.581 0.829,7.033 0.341,8.505 -0.049,9.995 h 1.62 C 1.69,9.509 1.833,8.985 2.001,8.424 2.168,7.862 2.354,7.284 2.56,6.69 2.765,6.096 2.986,5.502 3.224,4.909 3.461,4.314 3.71,3.742 3.969,3.191 4.38,4.325 4.736,5.448 5.038,6.561 5.341,7.673 5.627,8.818 5.897,9.995 H 7.452 C 7.063,8.408 6.631,6.882 6.156,5.419 5.681,3.955 5.168,2.586 4.617,1.312 4.401,0.826 4.177,0.408 3.945,0.057 3.713,-0.294 3.456,-0.583 3.176,-0.81 2.895,-1.037 2.578,-1.204 2.228,-1.312 1.877,-1.42 1.479,-1.474 1.037,-1.474 c -0.119,0 -0.243,0.008 -0.373,0.024 -0.129,0.016 -0.257,0.038 -0.381,0.065 -0.124,0.027 -0.237,0.056 -0.34,0.089 -0.102,0.032 -0.175,0.059 -0.218,0.081 z"
         style="fill:#1d1d1b;fill-opacity:1;fill-rule:nonzero;stroke:none"
         id="path384"
         inkscape:connector-curvature="0" /></g><g
       id="g386"
       transform="translate(185.0683,69.2459)"><path
         d="M 0,0 C 0.442,0 0.823,-0.033 1.142,-0.097 1.46,-0.162 1.685,-0.222 1.814,-0.275 L 1.539,-1.571 c -0.13,0.064 -0.313,0.126 -0.551,0.186 -0.238,0.059 -0.529,0.089 -0.875,0.089 -0.702,0 -1.193,-0.192 -1.474,-0.575 -0.282,-0.384 -0.421,-0.9 -0.421,-1.547 v -0.729 h 3.24 v -1.264 h -3.24 v -7.16 h -1.507 v 9.185 c 0,1.08 0.265,1.914 0.794,2.503 C -1.966,-0.294 -1.135,0 0,0"
         style="fill:#1d1d1b;fill-opacity:1;fill-rule:nonzero;stroke:none"
         id="path388"
         inkscape:connector-curvature="0" /></g><g
       id="g390"
       transform="translate(191.0614,65.2767)"><path
         d="M 0,0 C 0.13,0 0.278,-0.008 0.445,-0.024 0.613,-0.041 0.777,-0.062 0.939,-0.089 1.102,-0.116 1.25,-0.143 1.385,-0.17 1.521,-0.197 1.62,-0.221 1.685,-0.243 L 1.426,-1.555 c -0.119,0.043 -0.317,0.095 -0.592,0.154 -0.275,0.059 -0.629,0.089 -1.061,0.089 -0.281,0 -0.558,-0.03 -0.834,-0.089 -0.275,-0.059 -0.457,-0.1 -0.543,-0.121 v -7.08 H -3.11 v 8.067 c 0.356,0.13 0.798,0.252 1.328,0.365 C -1.253,-0.057 -0.659,0 0,0"
         style="fill:#1d1d1b;fill-opacity:1;fill-rule:nonzero;stroke:none"
         id="path392"
         inkscape:connector-curvature="0" /></g><g
       id="g394"
       transform="translate(199.9882,61.0809)"><path
         d="M 0,0 C 0,0.95 -0.213,1.704 -0.64,2.26 -1.066,2.816 -1.646,3.094 -2.381,3.094 -3.116,3.094 -3.696,2.816 -4.123,2.26 -4.55,1.704 -4.763,0.95 -4.763,0 c 0,-0.95 0.213,-1.704 0.64,-2.26 0.427,-0.556 1.007,-0.834 1.742,-0.834 0.735,0 1.315,0.278 1.741,0.834 C -0.213,-1.704 0,-0.95 0,0 m 1.571,0 c 0,-0.669 -0.096,-1.274 -0.291,-1.814 -0.194,-0.54 -0.468,-1.005 -0.818,-1.394 -0.351,-0.388 -0.77,-0.688 -1.256,-0.898 -0.485,-0.211 -1.015,-0.316 -1.587,-0.316 -0.573,0 -1.101,0.105 -1.588,0.316 -0.486,0.21 -0.904,0.51 -1.256,0.898 -0.35,0.389 -0.623,0.854 -0.817,1.394 -0.194,0.54 -0.292,1.145 -0.292,1.814 0,0.659 0.098,1.261 0.292,1.807 0.194,0.545 0.467,1.012 0.817,1.401 0.352,0.389 0.77,0.688 1.256,0.899 0.487,0.21 1.015,0.316 1.588,0.316 0.572,0 1.102,-0.106 1.587,-0.316 C -0.308,3.896 0.111,3.597 0.462,3.208 0.812,2.819 1.086,2.352 1.28,1.807 1.475,1.261 1.571,0.659 1.571,0"
         style="fill:#1d1d1b;fill-opacity:1;fill-rule:nonzero;stroke:none"
         id="path396"
         inkscape:connector-curvature="0" /></g><g
       id="g398"
       transform="translate(210.2753,56.6746)"><path
         d="M 0,0 C -0.302,0.778 -0.623,1.666 -0.964,2.665 -1.304,3.664 -1.614,4.703 -1.896,5.783 -2.176,4.703 -2.483,3.664 -2.818,2.665 -3.153,1.666 -3.472,0.778 -3.774,0 H -5.087 C -5.583,1.112 -6.069,2.381 -6.545,3.807 -7.02,5.232 -7.468,6.771 -7.889,8.424 h 1.619 c 0.109,-0.508 0.239,-1.059 0.39,-1.653 0.151,-0.593 0.31,-1.188 0.478,-1.781 0.167,-0.594 0.342,-1.167 0.526,-1.718 0.184,-0.55 0.356,-1.031 0.519,-1.441 0.183,0.507 0.364,1.044 0.543,1.611 0.177,0.567 0.347,1.14 0.509,1.718 0.162,0.577 0.317,1.144 0.462,1.701 0.146,0.556 0.273,1.077 0.381,1.563 h 1.247 C -1.117,7.938 -0.999,7.417 -0.858,6.861 -0.718,6.304 -0.566,5.737 -0.404,5.16 -0.242,4.582 -0.072,4.009 0.105,3.442 0.284,2.875 0.465,2.338 0.648,1.831 0.811,2.241 0.98,2.722 1.158,3.272 1.337,3.823 1.513,4.396 1.686,4.99 1.857,5.583 2.02,6.178 2.171,6.771 2.322,7.365 2.452,7.916 2.56,8.424 H 4.115 C 3.694,6.771 3.246,5.232 2.771,3.807 2.295,2.381 1.81,1.112 1.312,0 Z"
         style="fill:#1d1d1b;fill-opacity:1;fill-rule:nonzero;stroke:none"
         id="path400"
         inkscape:connector-curvature="0" /></g><g
       id="g402"
       transform="translate(218.748,57.9222)"><path
         d="M 0,0 C 0.356,0 0.672,0.008 0.947,0.024 1.223,0.041 1.452,0.07 1.636,0.113 V 2.624 C 1.528,2.678 1.353,2.724 1.109,2.762 0.866,2.8 0.572,2.819 0.227,2.819 0,2.819 -0.241,2.802 -0.494,2.77 -0.748,2.738 -0.98,2.67 -1.191,2.567 -1.401,2.465 -1.577,2.325 -1.718,2.146 c -0.14,-0.178 -0.21,-0.413 -0.21,-0.705 0,-0.54 0.172,-0.915 0.519,-1.125 C -1.064,0.105 -0.595,0 0,0 M -0.13,7.549 C 0.475,7.549 0.985,7.471 1.401,7.314 1.816,7.157 2.151,6.936 2.405,6.65 2.659,6.364 2.84,6.023 2.948,5.629 3.056,5.235 3.11,4.8 3.11,4.325 V -0.94 C 2.98,-0.961 2.8,-0.991 2.567,-1.029 2.335,-1.067 2.073,-1.102 1.782,-1.134 1.49,-1.167 1.174,-1.196 0.834,-1.223 0.494,-1.25 0.156,-1.264 -0.179,-1.264 c -0.475,0 -0.912,0.049 -1.311,0.146 -0.401,0.097 -0.746,0.251 -1.037,0.462 -0.292,0.21 -0.519,0.488 -0.681,0.834 -0.162,0.345 -0.243,0.761 -0.243,1.247 0,0.465 0.095,0.865 0.284,1.199 0.188,0.335 0.445,0.605 0.77,0.81 0.323,0.205 0.701,0.357 1.133,0.454 0.432,0.097 0.885,0.146 1.361,0.146 0.151,0 0.307,-0.009 0.469,-0.025 C 0.729,3.993 0.883,3.971 1.028,3.944 1.174,3.917 1.301,3.893 1.409,3.872 1.517,3.85 1.593,3.833 1.636,3.823 V 4.244 C 1.636,4.493 1.608,4.738 1.555,4.981 1.501,5.224 1.403,5.44 1.264,5.629 1.123,5.818 0.932,5.97 0.688,6.083 0.445,6.196 0.129,6.253 -0.26,6.253 -0.756,6.253 -1.191,6.218 -1.563,6.148 -1.937,6.077 -2.214,6.004 -2.397,5.929 l -0.179,1.247 c 0.194,0.087 0.518,0.171 0.972,0.252 0.454,0.08 0.945,0.121 1.474,0.121"
         style="fill:#1d1d1b;fill-opacity:1;fill-rule:nonzero;stroke:none"
         id="path404"
         inkscape:connector-curvature="0" /></g></g></svg>