<?xml version="1.0" encoding="UTF-8" standalone="no"?>
<!-- Created with Inkscape (http://www.inkscape.org/) -->

<svg
   xmlns:dc="http://purl.org/dc/elements/1.1/"
   xmlns:cc="http://creativecommons.org/ns#"
   xmlns:rdf="http://www.w3.org/1999/02/22-rdf-syntax-ns#"
   xmlns:svg="http://www.w3.org/2000/svg"
   xmlns="http://www.w3.org/2000/svg"
   xmlns:sodipodi="http://sodipodi.sourceforge.net/DTD/sodipodi-0.dtd"
   xmlns:inkscape="http://www.inkscape.org/namespaces/inkscape"
   version="1.1"
   id="svg2"
   xml:space="preserve"
   width="634"
   height="213"
   viewBox="0 0 634 213"
   sodipodi:docname="logo-rp.svg"
   inkscape:version="0.92.4 (5da689c313, 2019-01-14)"><metadata
     id="metadata8"><rdf:RDF><cc:Work
         rdf:about=""><dc:format>image/svg+xml</dc:format><dc:type
           rdf:resource="http://purl.org/dc/dcmitype/StillImage" /><dc:title /></cc:Work></rdf:RDF></metadata><defs
     id="defs6"><clipPath
       clipPathUnits="userSpaceOnUse"
       id="clipPath18"><path
         d="M 0,222.317 H 553.249 V 0 H 0 Z"
         id="path16"
         inkscape:connector-curvature="0" /></clipPath><clipPath
       clipPathUnits="userSpaceOnUse"
       id="clipPath116"><path
         d="M 0,222.317 H 553.249 V 0 H 0 Z"
         id="path114"
         inkscape:connector-curvature="0" /></clipPath></defs><sodipodi:namedview
     pagecolor="#ffffff"
     bordercolor="#666666"
     borderopacity="1"
     objecttolerance="10"
     gridtolerance="10"
     guidetolerance="10"
     inkscape:pageopacity="1"
     inkscape:pageshadow="2"
     inkscape:window-width="1680"
     inkscape:window-height="991"
     id="namedview4"
     showgrid="false"
     fit-margin-top="40"
     fit-margin-bottom="40"
     fit-margin-left="30"
     fit-margin-right="30"
     inkscape:zoom="0.8506557"
     inkscape:cx="-427.00356"
     inkscape:cy="-39.260146"
     inkscape:window-x="0"
     inkscape:window-y="30"
     inkscape:window-maximized="1"
     inkscape:current-layer="g10" /><g
     id="g10"
     inkscape:groupmode="layer"
     inkscape:label="znak_barw_rp_poziom_szara_ramka_cmyk"
     transform="matrix(1.3333333,0,0,-1.3333333,-63.950531,266.932)"><g
       id="g20"
       transform="translate(259.5811,149.021)"><path
         d="m 0,0 c 3.624,0 6.389,-0.661 8.308,-1.991 1.918,-1.321 2.879,-3.35 2.879,-6.08 0,-3.402 -1.676,-5.704 -5.035,-6.911 0.461,-0.558 0.978,-1.229 1.561,-2.029 0.576,-0.796 1.168,-1.661 1.772,-2.587 0.602,-0.928 1.178,-1.883 1.735,-2.862 0.558,-0.977 1.051,-1.934 1.491,-2.876 H 7.605 c -0.461,0.869 -0.957,1.746 -1.488,2.625 -0.531,0.88 -1.064,1.737 -1.611,2.571 -0.544,0.831 -1.079,1.614 -1.609,2.353 -0.531,0.734 -1.026,1.392 -1.486,1.973 -0.336,-0.029 -0.625,-0.037 -0.867,-0.037 h -0.688 -2.207 v -9.485 h -4.566 v 24.723 c 1.113,0.24 2.296,0.406 3.554,0.491 C -2.111,-0.037 -0.989,0 0,0 m 0.324,-3.942 c -0.966,0 -1.857,-0.039 -2.675,-0.107 v -8.111 h 1.99 c 1.11,0 2.085,0.061 2.929,0.184 0.848,0.116 1.554,0.336 2.119,0.65 0.564,0.31 0.995,0.734 1.287,1.264 0.288,0.532 0.432,1.208 0.432,2.03 0,0.768 -0.144,1.423 -0.432,1.952 -0.292,0.53 -0.707,0.953 -1.253,1.269 -0.535,0.314 -1.183,0.539 -1.936,0.668 -0.748,0.132 -1.57,0.201 -2.461,0.201"
         style="fill:#1d1d1b;fill-opacity:1;fill-rule:nonzero;stroke:none"
         id="path22"
         inkscape:connector-curvature="0" /></g><g
       id="g24"
       transform="translate(289.1567,139.54)"><path
         d="m 0,0 c -0.487,-0.502 -1.113,-1.219 -1.9,-2.134 -0.785,-0.919 -1.622,-1.935 -2.52,-3.059 -0.893,-1.123 -1.788,-2.294 -2.692,-3.514 -0.907,-1.217 -1.721,-2.382 -2.443,-3.493 h 9.767 v -3.654 h -15.054 v 2.711 c 0.53,0.971 1.197,2.017 1.992,3.154 0.796,1.133 1.618,2.274 2.459,3.421 0.847,1.144 1.685,2.235 2.518,3.273 0.83,1.038 1.576,1.946 2.225,2.713 h -8.724 v 3.66 L 0,3.078 Z"
         style="fill:#1d1d1b;fill-opacity:1;fill-rule:nonzero;stroke:none"
         id="path26"
         inkscape:connector-curvature="0" /></g><g
       id="g28"
       transform="translate(291.7622,133.062)"><path
         d="m 0,0 c 0,1.661 0.243,3.122 0.742,4.378 0.492,1.259 1.153,2.3 1.969,3.134 0.827,0.829 1.761,1.461 2.828,1.883 1.059,0.419 2.149,0.63 3.257,0.63 2.61,0 4.641,-0.807 6.102,-2.425 1.464,-1.619 2.189,-4.032 2.189,-7.237 0,-0.247 -0.006,-0.516 -0.02,-0.816 -0.011,-0.303 -0.034,-0.576 -0.053,-0.814 H 4.525 c 0.117,-1.524 0.659,-2.699 1.609,-3.527 0.954,-0.835 2.339,-1.255 4.148,-1.255 1.059,0 2.031,0.101 2.911,0.292 0.881,0.193 1.578,0.401 2.081,0.616 l 0.584,-3.582 c -0.244,-0.124 -0.575,-0.251 -1,-0.384 -0.421,-0.133 -0.906,-0.255 -1.441,-0.362 -0.547,-0.108 -1.13,-0.2 -1.762,-0.269 -0.625,-0.074 -1.268,-0.11 -1.914,-0.11 -1.671,0 -3.115,0.247 -4.346,0.741 -1.231,0.5 -2.244,1.182 -3.044,2.067 C 1.555,-6.163 0.966,-5.125 0.579,-3.926 0.192,-2.735 0,-1.428 0,0 m 12.706,1.954 c 0,0.601 -0.085,1.175 -0.255,1.718 -0.164,0.542 -0.413,1.015 -0.736,1.411 -0.331,0.398 -0.728,0.714 -1.2,0.945 C 10.047,6.256 9.486,6.371 8.832,6.371 8.155,6.371 7.563,6.245 7.057,5.991 6.553,5.735 6.122,5.405 5.774,4.994 5.423,4.582 5.151,4.112 4.961,3.584 4.765,3.053 4.637,2.508 4.557,1.954 Z"
         style="fill:#1d1d1b;fill-opacity:1;fill-rule:nonzero;stroke:none"
         id="path30"
         inkscape:connector-curvature="0" /></g><g
       id="g32"
       transform="translate(312.4312,133.1328)"><path
         d="m 0,0 c 0,1.398 0.219,2.71 0.657,3.927 0.431,1.219 1.051,2.276 1.858,3.168 0.81,0.891 1.798,1.591 2.954,2.099 1.164,0.507 2.458,0.762 3.911,0.762 1.781,0 3.474,-0.323 5.065,-0.979 L 13.508,5.395 C 12.998,5.611 12.424,5.792 11.789,5.933 11.146,6.08 10.467,6.152 9.742,6.152 8.025,6.152 6.724,5.62 5.831,4.542 4.939,3.468 4.494,1.951 4.494,0 c 0,-1.884 0.42,-3.375 1.27,-4.47 0.838,-1.1 2.261,-1.65 4.267,-1.65 0.75,0 1.481,0.078 2.208,0.219 0.726,0.143 1.352,0.327 1.884,0.542 l 0.614,-3.619 c -0.484,-0.238 -1.215,-0.458 -2.191,-0.65 -0.975,-0.195 -1.983,-0.289 -3.023,-0.289 -1.619,0 -3.024,0.247 -4.218,0.738 -1.193,0.5 -2.181,1.183 -2.965,2.067 -0.785,0.878 -1.374,1.93 -1.756,3.151 C 0.196,-2.745 0,-1.423 0,0"
         style="fill:#1d1d1b;fill-opacity:1;fill-rule:nonzero;stroke:none"
         id="path34"
         inkscape:connector-curvature="0" /></g><g
       id="g36"
       transform="translate(343.8169,139.54)"><path
         d="m 0,0 c -0.479,-0.502 -1.121,-1.219 -1.9,-2.134 -0.785,-0.919 -1.625,-1.935 -2.515,-3.059 -0.892,-1.123 -1.792,-2.294 -2.698,-3.514 -0.904,-1.217 -1.722,-2.382 -2.448,-3.493 h 9.776 v -3.654 h -15.054 v 2.711 c 0.529,0.971 1.19,2.017 1.988,3.154 0.795,1.133 1.614,2.274 2.463,3.421 0.845,1.144 1.683,2.235 2.513,3.273 0.838,1.038 1.577,1.946 2.229,2.713 h -8.726 v 3.66 L 0,3.078 Z"
         style="fill:#1d1d1b;fill-opacity:1;fill-rule:nonzero;stroke:none"
         id="path38"
         inkscape:connector-curvature="0" /></g><g
       id="g40"
       transform="translate(365.1353,133.1328)"><path
         d="m 0,0 c 0,-1.445 -0.185,-2.776 -0.562,-3.983 -0.375,-1.206 -0.906,-2.244 -1.605,-3.112 -0.702,-0.869 -1.577,-1.545 -2.628,-2.026 -1.051,-0.484 -2.24,-0.727 -3.565,-0.727 -0.898,0 -1.719,0.108 -2.461,0.327 -0.747,0.219 -1.362,0.458 -1.846,0.729 v -7.351 h -4.381 V 8.87 c 0.889,0.239 1.987,0.469 3.293,0.683 1.306,0.22 2.679,0.332 4.126,0.332 1.498,0 2.835,-0.23 4.019,-0.691 C -4.43,8.736 -3.421,8.078 -2.586,7.223 -1.751,6.366 -1.113,5.326 -0.669,4.109 -0.222,2.89 0,1.521 0,0 m -4.486,-0.071 c 0,1.954 -0.442,3.476 -1.323,4.558 -0.88,1.086 -2.301,1.63 -4.253,1.63 -0.408,0 -0.838,-0.017 -1.283,-0.051 -0.447,-0.04 -0.886,-0.116 -1.322,-0.239 V -4.998 c 0.388,-0.26 0.903,-0.51 1.537,-0.736 0.638,-0.232 1.323,-0.347 2.042,-0.347 1.592,0 2.767,0.541 3.497,1.629 0.734,1.084 1.105,2.546 1.105,4.381"
         style="fill:#1d1d1b;fill-opacity:1;fill-rule:nonzero;stroke:none"
         id="path42"
         inkscape:connector-curvature="0" /></g><g
       id="g44"
       transform="translate(386.7866,133.1699)"><path
         d="M 0,0 C 0,-1.5 -0.218,-2.859 -0.653,-4.089 -1.087,-5.323 -1.704,-6.372 -2.5,-7.241 -3.296,-8.107 -4.256,-8.786 -5.374,-9.27 -6.499,-9.75 -7.736,-9.992 -9.09,-9.992 c -1.345,0 -2.583,0.242 -3.689,0.722 -1.111,0.484 -2.065,1.163 -2.861,2.029 -0.796,0.869 -1.416,1.918 -1.86,3.152 -0.453,1.23 -0.674,2.589 -0.674,4.089 0,1.497 0.221,2.853 0.674,4.072 0.444,1.218 1.07,2.264 1.877,3.132 0.81,0.868 1.765,1.538 2.886,2.006 1.101,0.472 2.322,0.707 3.647,0.707 1.334,0 2.552,-0.235 3.679,-0.707 C -4.293,8.742 -3.333,8.072 -2.537,7.204 -1.741,6.336 -1.115,5.29 -0.668,4.072 -0.224,2.853 0,1.497 0,0 m -4.494,0 c 0,1.884 -0.397,3.371 -1.209,4.467 -0.813,1.099 -1.937,1.648 -3.387,1.648 -1.447,0 -2.577,-0.549 -3.384,-1.648 -0.804,-1.096 -1.214,-2.583 -1.214,-4.467 0,-1.904 0.41,-3.415 1.214,-4.527 0.807,-1.107 1.937,-1.663 3.384,-1.663 1.45,0 2.574,0.556 3.387,1.663 0.812,1.112 1.209,2.623 1.209,4.527"
         style="fill:#1d1d1b;fill-opacity:1;fill-rule:nonzero;stroke:none"
         id="path46"
         inkscape:connector-curvature="0" /></g><g
       id="g48"
       transform="translate(396.0474,126.8364)"><path
         d="m 0,0 c 1.164,0 2.008,0.139 2.537,0.415 0.529,0.276 0.802,0.753 0.802,1.43 0,0.627 -0.286,1.145 -0.856,1.553 -0.566,0.415 -1.506,0.861 -2.806,1.341 -0.796,0.289 -1.527,0.596 -2.189,0.928 -0.666,0.322 -1.238,0.702 -1.721,1.135 -0.482,0.436 -0.865,0.963 -1.139,1.577 -0.277,0.616 -0.414,1.368 -0.414,2.26 0,1.737 0.635,3.105 1.915,4.109 1.277,1.004 3.018,1.504 5.216,1.504 1.107,0 2.166,-0.102 3.18,-0.307 1.02,-0.21 1.779,-0.405 2.288,-0.601 L 6.012,11.8 c -0.485,0.216 -1.099,0.417 -1.847,0.596 -0.741,0.18 -1.611,0.273 -2.604,0.273 -0.893,0 -1.618,-0.154 -2.17,-0.452 -0.564,-0.3 -0.838,-0.771 -0.838,-1.394 0,-0.314 0.053,-0.592 0.164,-0.832 0.11,-0.244 0.298,-0.468 0.56,-0.674 C -0.456,9.114 -0.11,8.909 0.331,8.702 0.759,8.497 1.297,8.288 1.92,8.071 2.962,7.684 3.843,7.303 4.564,6.931 5.29,6.557 5.89,6.134 6.357,5.667 6.821,5.193 7.173,4.656 7.385,4.051 7.608,3.448 7.714,2.726 7.714,1.88 7.714,0.069 7.045,-1.3 5.703,-2.229 4.366,-3.159 2.452,-3.621 -0.031,-3.621 c -1.665,0 -3.008,0.139 -4.022,0.415 -1.013,0.276 -1.724,0.5 -2.137,0.67 l 0.764,3.659 C -4.774,0.854 -3.999,0.601 -3.093,0.362 -2.189,0.116 -1.155,0 0,0"
         style="fill:#1d1d1b;fill-opacity:1;fill-rule:nonzero;stroke:none"
         id="path50"
         inkscape:connector-curvature="0" /></g><g
       id="g52"
       transform="translate(424.9009,133.1328)"><path
         d="m 0,0 c 0,-1.445 -0.19,-2.776 -0.561,-3.983 -0.371,-1.206 -0.912,-2.244 -1.614,-3.112 -0.694,-0.869 -1.575,-1.545 -2.62,-2.026 -1.05,-0.484 -2.239,-0.727 -3.564,-0.727 -0.899,0 -1.714,0.108 -2.467,0.327 -0.748,0.219 -1.362,0.458 -1.841,0.729 v -7.351 h -4.381 V 8.87 c 0.895,0.239 1.988,0.469 3.293,0.683 1.306,0.22 2.68,0.332 4.126,0.332 1.498,0 2.841,-0.23 4.025,-0.691 1.174,-0.458 2.183,-1.116 3.015,-1.971 0.833,-0.857 1.47,-1.897 1.92,-3.114 C -0.221,2.89 0,1.521 0,0 m -4.486,-0.071 c 0,1.954 -0.448,3.476 -1.323,4.558 -0.882,1.086 -2.295,1.63 -4.253,1.63 -0.414,0 -0.843,-0.017 -1.292,-0.051 -0.444,-0.04 -0.876,-0.116 -1.313,-0.239 V -4.998 c 0.382,-0.26 0.895,-0.51 1.538,-0.736 0.643,-0.232 1.322,-0.347 2.041,-0.347 1.598,0 2.753,0.541 3.498,1.629 0.736,1.084 1.104,2.546 1.104,4.381"
         style="fill:#1d1d1b;fill-opacity:1;fill-rule:nonzero;stroke:none"
         id="path54"
         inkscape:connector-curvature="0" /></g><g
       id="g56"
       transform="translate(446.5503,133.1699)"><path
         d="m 0,0 c 0,-1.5 -0.216,-2.859 -0.651,-4.089 -0.437,-1.234 -1.051,-2.283 -1.847,-3.152 -0.802,-0.866 -1.756,-1.545 -2.88,-2.029 -1.118,-0.48 -2.356,-0.722 -3.71,-0.722 -1.35,0 -2.582,0.242 -3.689,0.722 -1.111,0.484 -2.065,1.163 -2.861,2.029 -0.796,0.869 -1.416,1.918 -1.86,3.152 -0.453,1.23 -0.674,2.589 -0.674,4.089 0,1.497 0.221,2.853 0.674,4.072 0.444,1.218 1.07,2.264 1.88,3.132 0.807,0.868 1.767,1.538 2.872,2.006 1.112,0.472 2.333,0.707 3.658,0.707 1.322,0 2.552,-0.235 3.679,-0.707 C -4.29,8.742 -3.33,8.072 -2.535,7.204 -1.733,6.336 -1.119,5.29 -0.674,4.072 -0.221,2.853 0,1.497 0,0 m -4.486,0 c 0,1.884 -0.41,3.371 -1.215,4.467 -0.807,1.099 -1.937,1.648 -3.387,1.648 -1.447,0 -2.577,-0.549 -3.384,-1.648 -0.809,-1.096 -1.209,-2.583 -1.209,-4.467 0,-1.904 0.4,-3.415 1.209,-4.527 0.807,-1.107 1.937,-1.663 3.384,-1.663 1.45,0 2.58,0.556 3.387,1.663 0.805,1.112 1.215,2.623 1.215,4.527"
         style="fill:#1d1d1b;fill-opacity:1;fill-rule:nonzero;stroke:none"
         id="path58"
         inkscape:connector-curvature="0" /></g><g
       id="g60"
       transform="translate(457.6597,123.3237)"><path
         d="M 0,0 C -1.306,0.024 -2.382,0.168 -3.237,0.435 -4.095,0.699 -4.78,1.076 -5.282,1.576 -5.789,2.068 -6.148,2.683 -6.35,3.421 -6.556,4.158 -6.658,4.997 -6.658,5.936 V 24.477 L -2.28,25.2 V 6.768 c 0,-0.53 0.043,-0.98 0.125,-1.341 0.088,-0.363 0.235,-0.67 0.459,-0.923 0.209,-0.252 0.507,-0.445 0.88,-0.578 0.377,-0.133 0.852,-0.237 1.43,-0.306 z"
         style="fill:#1d1d1b;fill-opacity:1;fill-rule:nonzero;stroke:none"
         id="path62"
         inkscape:connector-curvature="0" /></g><g
       id="g64"
       transform="translate(466.7095,148.1528)"><path
         d="m 0,0 c 0,-0.818 -0.266,-1.468 -0.795,-1.952 -0.53,-0.485 -1.161,-0.724 -1.884,-0.724 -0.742,0 -1.384,0.239 -1.914,0.724 -0.529,0.484 -0.796,1.134 -0.796,1.952 0,0.847 0.267,1.511 0.796,1.991 0.53,0.486 1.172,0.726 1.914,0.726 0.723,0 1.354,-0.24 1.884,-0.726 C -0.266,1.511 0,0.847 0,0 m -0.473,-24.467 h -4.375 v 18.932 h 4.375 z"
         style="fill:#1d1d1b;fill-opacity:1;fill-rule:nonzero;stroke:none"
         id="path66"
         inkscape:connector-curvature="0" /></g><g
       id="g68"
       transform="translate(471.5952,147.8003)"><path
         d="m 0,0 4.383,0.722 v -5.904 h 6.731 v -3.66 H 4.383 v -7.71 c 0,-1.516 0.238,-2.604 0.722,-3.254 0.482,-0.655 1.306,-0.981 2.461,-0.981 0.801,0 1.506,0.085 2.122,0.254 0.617,0.17 1.104,0.325 1.463,0.474 l 0.728,-3.481 c -0.51,-0.213 -1.178,-0.437 -1.996,-0.668 -0.821,-0.228 -1.787,-0.342 -2.895,-0.342 -1.353,0 -2.483,0.181 -3.381,0.542 -0.906,0.361 -1.628,0.889 -2.158,1.576 -0.535,0.688 -0.903,1.522 -1.118,2.499 C 0.107,-18.958 0,-17.843 0,-16.587 Z"
         style="fill:#1d1d1b;fill-opacity:1;fill-rule:nonzero;stroke:none"
         id="path70"
         inkscape:connector-curvature="0" /></g><g
       id="g72"
       transform="translate(493.2417,143.0884)"><path
         d="M 0,0 C 1.452,0 2.667,-0.181 3.658,-0.542 4.646,-0.908 5.437,-1.412 6.031,-2.06 6.62,-2.714 7.045,-3.506 7.3,-4.437 7.549,-5.366 7.674,-6.381 7.674,-7.496 V -18.969 C 7.003,-19.112 5.983,-19.289 4.618,-19.496 3.251,-19.698 1.716,-19.803 0,-19.803 c -1.13,0 -2.167,0.109 -3.109,0.325 -0.941,0.222 -1.745,0.567 -2.408,1.051 -0.666,0.485 -1.183,1.11 -1.554,1.884 -0.377,0.772 -0.564,1.724 -0.564,2.858 0,1.085 0.212,2.002 0.631,2.753 0.425,0.746 0.997,1.356 1.725,1.829 0.722,0.469 1.557,0.807 2.514,1.011 0.955,0.204 1.947,0.309 2.989,0.309 0.475,0 0.985,-0.029 1.514,-0.091 0.533,-0.061 1.099,-0.159 1.705,-0.307 v 0.723 c 0,0.509 -0.059,0.993 -0.181,1.446 -0.122,0.462 -0.328,0.865 -0.637,1.213 -0.304,0.35 -0.7,0.623 -1.192,0.816 -0.494,0.192 -1.117,0.292 -1.864,0.292 -1.013,0 -1.942,-0.078 -2.79,-0.22 -0.843,-0.14 -1.528,-0.31 -2.058,-0.506 l -0.546,3.547 c 0.552,0.195 1.361,0.384 2.424,0.577 C -2.337,-0.098 -1.207,0 0,0 m 0.365,-16.33 c 1.351,0 2.376,0.078 3.078,0.221 v 4.85 c -0.247,0.073 -0.594,0.143 -1.05,0.219 -0.462,0.068 -0.966,0.108 -1.524,0.108 -0.475,0 -0.966,-0.04 -1.464,-0.108 -0.493,-0.076 -0.94,-0.207 -1.342,-0.399 -0.394,-0.193 -0.711,-0.465 -0.955,-0.816 -0.244,-0.348 -0.362,-0.791 -0.362,-1.321 0,-1.038 0.325,-1.753 0.977,-2.153 0.648,-0.4 1.535,-0.601 2.642,-0.601"
         style="fill:#1d1d1b;fill-opacity:1;fill-rule:nonzero;stroke:none"
         id="path74"
         inkscape:connector-curvature="0" /></g><g
       id="g76"
       transform="translate(259.7617,115.46)"><path
         d="m 0,0 c 3.642,0 6.432,-0.66 8.376,-1.99 1.947,-1.327 2.912,-3.402 2.912,-6.228 0,-1.471 -0.259,-2.732 -0.773,-3.782 -0.524,-1.049 -1.276,-1.905 -2.261,-2.566 -0.992,-0.669 -2.198,-1.154 -3.621,-1.469 -1.429,-0.316 -3.053,-0.469 -4.889,-0.469 h -2.283 v -8.832 h -4.56 v 24.722 c 1.061,0.237 2.239,0.405 3.529,0.487 C -2.277,-0.042 -1.087,0 0,0 m 0.32,-3.941 c -1.153,0 -2.105,-0.04 -2.859,-0.11 v -8.548 h 2.215 c 2.192,0 3.88,0.308 5.067,0.928 1.182,0.612 1.774,1.776 1.774,3.492 0,0.818 -0.163,1.507 -0.475,2.061 -0.308,0.557 -0.749,0.991 -1.299,1.306 -0.555,0.312 -1.215,0.533 -1.98,0.669 -0.758,0.13 -1.575,0.202 -2.443,0.202"
         style="fill:#1d1d1b;fill-opacity:1;fill-rule:nonzero;stroke:none"
         id="path78"
         inkscape:connector-curvature="0" /></g><g
       id="g80"
       transform="translate(291.4702,99.6045)"><path
         d="m 0,0 c 0,-1.494 -0.218,-2.858 -0.652,-4.088 -0.43,-1.234 -1.045,-2.279 -1.845,-3.15 -0.791,-0.868 -1.754,-1.543 -2.878,-2.028 -1.122,-0.484 -2.36,-0.723 -3.714,-0.723 -1.352,0 -2.582,0.239 -3.686,0.723 -1.118,0.485 -2.069,1.16 -2.859,2.028 -0.802,0.871 -1.426,1.916 -1.87,3.15 -0.447,1.23 -0.669,2.594 -0.669,4.088 0,1.497 0.222,2.857 0.669,4.071 0.444,1.223 1.075,2.264 1.883,3.132 0.809,0.873 1.768,1.543 2.882,2.011 1.107,0.47 2.322,0.706 3.65,0.706 1.332,0 2.552,-0.236 3.677,-0.706 C -4.29,8.746 -3.331,8.076 -2.536,7.203 -1.74,6.335 -1.112,5.294 -0.668,4.071 -0.224,2.857 0,1.497 0,0 m -4.488,0 c 0,1.883 -0.403,3.371 -1.216,4.47 -0.806,1.1 -1.937,1.645 -3.385,1.645 -1.443,0 -2.572,-0.545 -3.379,-1.645 -0.809,-1.099 -1.215,-2.587 -1.215,-4.47 0,-1.904 0.406,-3.415 1.215,-4.523 0.807,-1.111 1.936,-1.667 3.379,-1.667 1.448,0 2.579,0.556 3.385,1.667 0.813,1.108 1.216,2.619 1.216,4.523"
         style="fill:#1d1d1b;fill-opacity:1;fill-rule:nonzero;stroke:none"
         id="path82"
         inkscape:connector-curvature="0" /></g><g
       id="g84"
       transform="translate(302.5854,89.7607)"><path
         d="M 0,0 C -1.306,0.024 -2.382,0.17 -3.242,0.431 -4.098,0.701 -4.78,1.078 -5.29,1.573 -5.794,2.07 -6.148,2.684 -6.356,3.423 -6.558,4.156 -6.663,4.994 -6.663,5.936 v 18.496 l 4.381,0.725 V 6.766 c 0,-0.53 0.048,-0.976 0.127,-1.338 0.085,-0.362 0.235,-0.668 0.453,-0.922 0.221,-0.252 0.513,-0.444 0.89,-0.58 0.368,-0.135 0.843,-0.235 1.426,-0.31 z"
         style="fill:#1d1d1b;fill-opacity:1;fill-rule:nonzero;stroke:none"
         id="path86"
         inkscape:connector-curvature="0" /></g><g
       id="g88"
       transform="translate(311.4888,93.2715)"><path
         d="M 0,0 C 1.161,0 2.005,0.139 2.534,0.415 3.063,0.695 3.33,1.171 3.33,1.843 3.33,2.472 3.05,2.993 2.48,3.4 1.914,3.813 0.974,4.258 -0.326,4.739 c -0.796,0.291 -1.527,0.6 -2.189,0.926 -0.669,0.327 -1.237,0.702 -1.721,1.141 -0.488,0.429 -0.865,0.959 -1.139,1.572 -0.277,0.62 -0.416,1.373 -0.416,2.264 0,1.739 0.637,3.106 1.917,4.106 1.283,1.002 3.019,1.507 5.211,1.507 1.112,0 2.175,-0.106 3.193,-0.308 1.012,-0.208 1.771,-0.408 2.281,-0.6 L 6.009,11.8 c -0.485,0.22 -1.099,0.418 -1.841,0.596 -0.753,0.184 -1.622,0.271 -2.61,0.271 -0.89,0 -1.618,-0.149 -2.175,-0.449 -0.553,-0.303 -0.827,-0.768 -0.827,-1.395 0,-0.314 0.053,-0.592 0.158,-0.833 0.11,-0.239 0.292,-0.463 0.563,-0.671 C -0.462,9.114 -0.107,8.909 0.322,8.706 0.762,8.497 1.294,8.291 1.917,8.07 2.959,7.684 3.834,7.308 4.564,6.93 5.287,6.557 5.882,6.134 6.36,5.665 6.827,5.193 7.17,4.655 7.388,4.055 7.601,3.447 7.711,2.726 7.711,1.88 7.711,0.072 7.043,-1.296 5.7,-2.226 4.363,-3.156 2.449,-3.621 -0.04,-3.621 c -1.659,0 -2.996,0.143 -4.01,0.419 -1.016,0.276 -1.73,0.5 -2.137,0.67 l 0.758,3.654 C -4.774,0.857 -3.996,0.603 -3.101,0.362 -2.192,0.119 -1.164,0 0,0"
         style="fill:#1d1d1b;fill-opacity:1;fill-rule:nonzero;stroke:none"
         id="path90"
         inkscape:connector-curvature="0" /></g><g
       id="g92"
       transform="translate(327.6665,101.6709)"><path
         d="m 0,0 c 0.559,0.574 1.147,1.197 1.778,1.861 0.626,0.666 1.246,1.327 1.847,1.992 0.598,0.665 1.175,1.303 1.722,1.919 0.538,0.614 1.006,1.153 1.39,1.61 h 5.174 C 10.71,6.034 9.444,4.634 8.107,3.181 6.771,1.735 5.423,0.321 4.075,-1.054 4.8,-1.654 5.562,-2.385 6.353,-3.241 7.147,-4.098 7.921,-5.01 8.669,-5.975 c 0.744,-0.967 1.444,-1.929 2.09,-2.896 0.654,-0.966 1.189,-1.858 1.628,-2.676 H 7.312 c -0.43,0.746 -0.928,1.529 -1.498,2.35 C 5.248,-8.376 4.639,-7.58 3.984,-6.804 3.333,-6.035 2.668,-5.306 1.997,-4.618 1.317,-3.928 0.66,-3.347 0,-2.86 v -8.687 H -4.381 V 12.521 L 0,13.247 Z"
         style="fill:#1d1d1b;fill-opacity:1;fill-rule:nonzero;stroke:none"
         id="path94"
         inkscape:connector-curvature="0" /></g><g
       id="g96"
       transform="translate(349.5347,109.5264)"><path
         d="m 0,0 c 1.449,0 2.664,-0.185 3.655,-0.546 0.991,-0.362 1.779,-0.869 2.37,-1.517 0.59,-0.655 1.014,-1.443 1.269,-2.374 0.255,-0.928 0.383,-1.948 0.383,-3.058 V -18.973 C 7.003,-19.115 5.98,-19.292 4.615,-19.495 3.245,-19.701 1.713,-19.804 0,-19.804 c -1.13,0 -2.17,0.11 -3.115,0.324 -0.938,0.219 -1.744,0.57 -2.407,1.054 -0.661,0.485 -1.184,1.108 -1.555,1.883 -0.377,0.77 -0.558,1.721 -0.558,2.859 0,1.083 0.209,1.998 0.628,2.752 0.423,0.745 1,1.353 1.723,1.826 0.722,0.473 1.559,0.807 2.514,1.01 0.958,0.209 1.943,0.31 2.982,0.31 0.481,0 0.991,-0.028 1.523,-0.091 0.53,-0.057 1.096,-0.16 1.708,-0.308 v 0.727 c 0,0.51 -0.062,0.989 -0.187,1.445 -0.121,0.463 -0.328,0.862 -0.631,1.215 -0.307,0.346 -0.7,0.623 -1.198,0.816 -0.493,0.191 -1.114,0.288 -1.864,0.288 -1.01,0 -1.939,-0.075 -2.789,-0.22 -0.843,-0.141 -1.526,-0.312 -2.058,-0.506 l -0.547,3.55 c 0.558,0.191 1.365,0.386 2.43,0.578 C -2.34,-0.101 -1.21,0 0,0 m 0.362,-16.329 c 1.351,0 2.37,0.074 3.081,0.217 v 4.849 c -0.249,0.078 -0.594,0.148 -1.056,0.22 -0.462,0.072 -0.966,0.111 -1.524,0.111 -0.481,0 -0.966,-0.039 -1.458,-0.111 -0.499,-0.072 -0.943,-0.203 -1.348,-0.396 -0.397,-0.196 -0.711,-0.468 -0.957,-0.815 -0.241,-0.352 -0.363,-0.791 -0.363,-1.322 0,-1.036 0.328,-1.756 0.986,-2.153 0.642,-0.399 1.529,-0.6 2.639,-0.6"
         style="fill:#1d1d1b;fill-opacity:1;fill-rule:nonzero;stroke:none"
         id="path98"
         inkscape:connector-curvature="0" /></g><g
       id="g100"
       transform="translate(70.4634,120.2114)"><path
         d="m 0,0 h 149.149 l 0,49.776 H 0 Z"
         style="fill:#ffffff;fill-opacity:1;fill-rule:nonzero;stroke:none"
         id="path102"
         inkscape:connector-curvature="0"
         sodipodi:nodetypes="ccccc" /></g><g
       id="g104"
       transform="translate(70.4629,70.4492)"><path
         d="M 0,0 H 149.149 V 49.763 L 0,49.762 Z"
         style="fill:#b5202b;fill-opacity:1;fill-rule:nonzero;stroke:none"
         id="path106"
         inkscape:connector-curvature="0" /></g><path
       d="M 69.7129,69.699002 H 220.36165 V 170.73675 H 69.7129 Z m 0.75,100.287748 h 149.1495 l -7.5e-4,-99.537748 H 70.4629 Z"
       style="fill:#878787;fill-opacity:1;fill-rule:nonzero;stroke:none"
       id="path108"
       inkscape:connector-curvature="0"
       sodipodi:nodetypes="cccccccccc" /></g></svg>